/* XPM */
static char * start_xpm[] = {
"38 22 5 1",
" 	c None",
".	c #1C1C1C",
"+	c #0061FE",
"@	c #0061FF",
"#	c #0160FC",
"......................................",
"......................................",
"..........+@@@@@@+....................",
"..........@@@@@@@@....................",
"..........@@@@@@@@..@+@@@+............",
"..........@@@@@@@@..@@@@@@............",
"..........@@@@@@@@..@@@@@+............",
"..........@@@@@@@@..@@@@@@............",
"..........@@@@@@@@..@@@@@+............",
"..........+@@@@@@+..@@@+@#............",
"......................................",
"......................................",
"............@+@@@+..+@@@@@@+..........",
"............@@@@@@..@@@@@@@@..........",
"............@@@@@+..@@@@@@@@..........",
"............@@@@@@..@@@@@@@@..........",
"............@@@@@+..@@@@@@@@..........",
"............@@@+@#..@@@@@@@@..........",
"....................@@@@@@@@..........",
"....................+@@@@@@+..........",
"......................................",
"......................................"};
