/* XPM */
static char * closeO_xpm[] = {
"26 58 66 1",
" 	c None",
".	c #1D2021",
"+	c #934341",
"@	c #CE5754",
"#	c #EE635E",
"$	c #FA6762",
"%	c #ED635E",
"&	c #CE5653",
"*	c #924342",
"=	c #733B3A",
"-	c #E25E5A",
";	c #FF6964",
">	c #723A3A",
",	c #8C433F",
"'	c #F86661",
")	c #8B423F",
"!	c #F76661",
"~	c #713A38",
"{	c #E15E5B",
"]	c #F1645E",
"^	c #5C3634",
"/	c #E15E5A",
"(	c #914441",
"_	c #CF5854",
":	c #E35F5A",
"<	c #5D3535",
"[	c #E05E5A",
"}	c #CD5753",
"|	c #F96763",
"1	c #ED625E",
"2	c #CC5854",
"3	c #904241",
"4	c #6D3A38",
"5	c #F66661",
"6	c #823534",
"7	c #B53E3B",
"8	c #D14340",
"9	c #DC4542",
"0	c #D0433F",
"a	c #B53D3B",
"b	c #813534",
"c	c #653131",
"d	c #C8413E",
"e	c #E04643",
"f	c #C6413E",
"g	c #643131",
"h	c #7B3433",
"i	c #D94543",
"j	c #7C3533",
"k	c #D94542",
"l	c #653230",
"m	c #D44341",
"n	c #513030",
"o	c #C6403E",
"p	c #803535",
"q	c #B63E3C",
"r	c #C8423F",
"s	c #533030",
"t	c #C5413E",
"u	c #C6413F",
"v	c #B33D3B",
"w	c #DB4542",
"x	c #D04340",
"y	c #7F3533",
"z	c #613131",
"A	c #D84542",
"..........................",
"..........................",
"..........................",
"..........................",
"..........................",
".........+@#$$%&*.........",
".......=-;;;;;;;;->.......",
"......,';;;;;;;;;;')......",
".....=';;;;;;;;;;;;!~.....",
".....{;;;];;;;;;];;;-.....",
"....+;;;]^/;;;;/^];;;(....",
"...._;;;;:<[;;:<[;;;;}....",
"....#;;;;;:<[:<[;;;;;%....",
"....$;;;;;;/^^/;;;;;;$....",
"....$;;;;;;/^^/;;;;;;|....",
"....#;;;;;:<[:<[;;;;;1....",
"....@;;;;:<[;;:<[;;;;2....",
"....*;;;]^/;;;;/^];;;3....",
".....[;;;];;;;;;];;;-.....",
".....45;;;;;;;;;;;;!~.....",
"......)!;;;;;;;;;;!)......",
".......>/;;;;;;;;{~.......",
".........(}1$$1}3.........",
"..........................",
"..........................",
"..........................",
"..........................",
"..........................",
"..........................",
"..........................",
"..........................",
"..........................",
"..........................",
"..........................",
".........678990ab.........",
".......cdeeeeeeeefg.......",
"......hieeeeeeeeeeij......",
".....cieeeeeeeeeeeekl.....",
".....feeemeeeeeemeeed.....",
"....6eeemnoeeeeonmeeep....",
"....qeeeersteeusteeeev....",
"....8eeeeerstusteeeee0....",
"....weeeeeeonnoeeeeeew....",
"....weeeeeeonnoeeeeeew....",
"....8eeeeeustrsteeeeex....",
"....7eeeeusteersteeeea....",
"....beeemnoeeeeonmeeey....",
".....teeemeeeeeemeeef.....",
".....zAeeeeeeeeeeeekl.....",
"......jkeeeeeeeeeekj......",
".......goeeeeeeeefl.......",
".........pvxwwxvy.........",
"..........................",
"..........................",
"..........................",
"..........................",
"..........................",
".........................."};
