/* XPM */
static char * closeI_xpm[] = {
"26 58 51 1",
" 	c None",
".	c #1D2021",
"+	c #3F3F3F",
"@	c #565656",
"#	c #626262",
"$	c #676767",
"%	c #636363",
"&	c #555555",
"*	c #404040",
"=	c #292A2B",
"-	c #5D5D5D",
";	c #696969",
">	c #5E5E5E",
",	c #212324",
"'	c #666666",
")	c #3D3D3D",
"!	c #252727",
"~	c #2F2F2F",
"{	c #3E3E3E",
"]	c #80302F",
"^	c #B53C39",
"/	c #D0423F",
"(	c #DC4542",
"_	c #D0423E",
":	c #B43B38",
"<	c #7F302F",
"[	c #622A2A",
"}	c #C7403D",
"|	c #E04643",
"1	c #C63F3C",
"2	c #612B2B",
"3	c #792F2D",
"4	c #D94442",
"5	c #7A2F2E",
"6	c #D94441",
"7	c #632B29",
"8	c #C53F3D",
"9	c #D34340",
"0	c #4D2828",
"a	c #C63F3D",
"b	c #7F2F2F",
"c	c #B53B39",
"d	c #C7413D",
"e	c #4F2828",
"f	c #C6403D",
"g	c #B33B39",
"h	c #DB4542",
"i	c #B43B39",
"j	c #7D2F2E",
"k	c #5E2A2A",
"l	c #D84541",
"..........................",
"..........................",
"..........................",
"..........................",
"..........................",
".........+@#$$%&*.........",
".......=-;;;;;;;;>,.......",
"......+';;;;;;;;;;')......",
".....=';;;;;;;;;;;;'!.....",
".....-;;;%;;;;;;%;;;-.....",
"....+;;;%~-;;;;-~%;;;*....",
"....@;;;;>~-;;>~-;;;;&....",
"....#;;;;;>~->~-;;;;;%....",
"....$;;;;;;-~~-;;;;;;$....",
"....$;;;;;;-~~-;;;;;;$....",
"....#;;;;;>~->~-;;;;;#....",
"....@;;;;>~-;;>~-;;;;@....",
"....*;;;%~-;;;;-~%;;;{....",
".....-;;;%;;;;;;%;;;>.....",
".....,';;;;;;;;;;;;'!.....",
"......)';;;;;;;;;;')......",
".......,-;;;;;;;;-!.......",
".........*&#$$#&{.........",
"..........................",
"..........................",
"..........................",
"..........................",
"..........................",
"..........................",
"..........................",
"..........................",
"..........................",
"..........................",
"..........................",
".........]^/((_:<.........",
".......[}||||||||12.......",
"......34||||||||||45......",
".....[4||||||||||||67.....",
".....8|||9||||||9|||}.....",
"....]|||90a||||a09|||b....",
"....c||||de8||fe8||||g....",
"..../|||||de8fe8|||||_....",
"....h||||||a00a||||||h....",
"....h||||||a00a||||||h....",
"..../|||||fe8de8|||||/....",
"....^||||fe8||de8||||i....",
"....<|||90a||||a09|||j....",
".....8|||9||||||9|||1.....",
".....kl||||||||||||67.....",
"......56||||||||||65......",
".......2a||||||||87.......",
".........bg/hh/gj.........",
"..........................",
"..........................",
"..........................",
"..........................",
"..........................",
".........................."};
