/* XPM */
static char * closeA_xpm[] = {
"26 58 62 1",
" 	c None",
".	c #1D2021",
"+	c #808080",
"@	c #B4B4B4",
"#	c #CFCFCF",
"$	c #DADADA",
"%	c #CECECE",
"&	c #B3B3B3",
"*	c #7F7F7F",
"=	c #656565",
"-	c #C5C5C5",
";	c #DEDEDE",
">	c #646464",
",	c #7B7B7B",
"'	c #D8D8D8",
")	c #7A7A7A",
"!	c #D7D7D7",
"~	c #636363",
"{	c #C3C3C3",
"]	c #D2D2D2",
"^	c #515151",
"/	c #C4C4C4",
"(	c #7E7E7E",
"_	c #C6C6C6",
":	c #535353",
"<	c #D9D9D9",
"[	c #B1B1B1",
"}	c #7D7D7D",
"|	c #616161",
"1	c #D6D6D6",
"2	c #823534",
"3	c #B53E3B",
"4	c #D14340",
"5	c #DC4542",
"6	c #D0433F",
"7	c #B53D3B",
"8	c #813534",
"9	c #653131",
"0	c #C8413E",
"a	c #E04643",
"b	c #C6413E",
"c	c #643131",
"d	c #7B3433",
"e	c #D94543",
"f	c #7C3533",
"g	c #D94542",
"h	c #653230",
"i	c #D44341",
"j	c #513030",
"k	c #C6403E",
"l	c #803535",
"m	c #B63E3C",
"n	c #C8423F",
"o	c #533030",
"p	c #C5413E",
"q	c #C6413F",
"r	c #B33D3B",
"s	c #DB4542",
"t	c #D04340",
"u	c #7F3533",
"v	c #613131",
"w	c #D84542",
"..........................",
"..........................",
"..........................",
"..........................",
"..........................",
".........+@#$$%&*.........",
".......=-;;;;;;;;->.......",
"......,';;;;;;;;;;')......",
".....=';;;;;;;;;;;;!~.....",
".....{;;;];;;;;;];;;-.....",
"....+;;;]^/;;;;/^];;;(....",
"....@;;;;_:/;;_:/;;;;&....",
"....#;;;;;_:/_:/;;;;;%....",
"....<;;;;;;/^^/;;;;;;<....",
"....<;;;;;;/^^/;;;;;;<....",
"....#;;;;;_:/_:/;;;;;%....",
"....@;;;;_:/;;_:/;;;;[....",
"....*;;;]^/;;;;/^];;;}....",
"...../;;;];;;;;;];;;-.....",
".....|1;;;;;;;;;;;;!~.....",
"......)!;;;;;;;;;;!)......",
".......>/;;;;;;;;{~.......",
".........(&%<<%&}.........",
"..........................",
"..........................",
"..........................",
"..........................",
"..........................",
"..........................",
"..........................",
"..........................",
"..........................",
"..........................",
"..........................",
".........23455678.........",
".......90aaaaaaaabc.......",
"......deaaaaaaaaaaef......",
".....9eaaaaaaaaaaaagh.....",
".....baaaiaaaaaaiaaa0.....",
"....2aaaijkaaaakjiaaal....",
"....maaaanopaaqopaaaar....",
"....4aaaaanopqopaaaaa6....",
"....saaaaaakjjkaaaaaas....",
"....saaaaaakjjkaaaaaas....",
"....4aaaaaqopnopaaaaat....",
"....3aaaaqopaanopaaaa7....",
"....8aaaijkaaaakjiaaau....",
".....paaaiaaaaaaiaaab.....",
".....vwaaaaaaaaaaaagh.....",
"......fgaaaaaaaaaagf......",
".......ckaaaaaaaabh.......",
".........lrtsstru.........",
"..........................",
"..........................",
"..........................",
"..........................",
"..........................",
".........................."};
