/* XPM */
static char * maximizeA_xpm[] = {
"26 58 22 1",
" 	c None",
".	c #1D2021",
"+	c #7D7D7D",
"@	c #D6D6D6",
"#	c #7A7A7A",
"$	c #797979",
"%	c #5F5F5F",
"&	c #414141",
"*	c #575757",
"=	c #636363",
"-	c #676767",
";	c #565656",
">	c #5E5E5E",
",	c #696969",
"'	c #666666",
")	c #3D3D3D",
"!	c #444444",
"~	c #585858",
"{	c #363636",
"]	c #353535",
"^	c #646464",
"/	c #626262",
"..........................",
"..........................",
"..........................",
"..........................",
"..........................",
"..........................",
"..........................",
"..........................",
"..........................",
"..........................",
"............++............",
"...........+@@+...........",
"..........#@+$@+..........",
".........#@+..$@+.........",
"........#@+....$@+........",
".......%@+......+@%.......",
"........%........%........",
"..........................",
"..........................",
"..........................",
"..........................",
"..........................",
"..........................",
"..........................",
"..........................",
"..........................",
"..........................",
"..........................",
"..........................",
"..........................",
"..........................",
"..........................",
"..........................",
"..........................",
".........&*=--=;&.........",
"........>,,,,,,,,>........",
"......&',,,,,,,,,,')......",
"......',,,,,,,,,,,,'......",
".....>,,,,,,,,,,,,,,>.....",
"....&,,,,,,,>>,,,,,,,!....",
"....~,,,,,,>{{>,,,,,,*....",
"....=,,,,,%]>%]>,,,,,=....",
"....-,,,,%]>,,%]>,,,,-....",
"....-,,,%]>,,,,%]>,,,-....",
"....=,,^{>,,,,,,>{^,,/....",
"....*,,,^,,,,,,,,^,,,~....",
"....&,,,,,,,,,,,,,,,,)....",
".....>,,,,,,,,,,,,,,>.....",
"......',,,,,,,,,,,,'......",
"......)',,,,,,,,,,')......",
"........>,,,,,,,,>........",
".........!*/--/*).........",
"..........................",
"..........................",
"..........................",
"..........................",
"..........................",
".........................."};
