/* XPM */
static char * minimizeO_xpm[] = {
"26 58 44 1",
" 	c None",
".	c #1D2021",
"+	c #808080",
"@	c #B4B4B4",
"#	c #CFCFCF",
"$	c #DADADA",
"%	c #CECECE",
"&	c #B3B3B3",
"*	c #7F7F7F",
"=	c #656565",
"-	c #C5C5C5",
";	c #DEDEDE",
">	c #646464",
",	c #7B7B7B",
"'	c #D8D8D8",
")	c #7A7A7A",
"!	c #D7D7D7",
"~	c #636363",
"{	c #C3C3C3",
"]	c #7E7E7E",
"^	c #D2D2D2",
"/	c #515151",
"(	c #C4C4C4",
"_	c #D9D9D9",
":	c #C6C6C6",
"<	c #535353",
"[	c #B1B1B1",
"}	c #7D7D7D",
"|	c #616161",
"1	c #D6D6D6",
"2	c #414141",
"3	c #575757",
"4	c #676767",
"5	c #565656",
"6	c #5E5E5E",
"7	c #696969",
"8	c #666666",
"9	c #3D3D3D",
"0	c #444444",
"a	c #585858",
"b	c #363636",
"c	c #5F5F5F",
"d	c #353535",
"e	c #626262",
"..........................",
"..........................",
"..........................",
"..........................",
"..........................",
".........+@#$$%&*.........",
".......=-;;;;;;;;->.......",
"......,';;;;;;;;;;')......",
".....=';;;;;;;;;;;;!~.....",
".....{;;;;;;;;;;;;;;-.....",
"....+;;;;;;;;;;;;;;;;]....",
"....@;;;^;;;;;;;;^;;;&....",
"....#;;^/(;;;;;;(/^;;%....",
"...._;;;:<(;;;;:<(;;;_....",
"...._;;;;:<(;;:<(;;;;_....",
"....#;;;;;:<(:<(;;;;;%....",
"....@;;;;;;(//(;;;;;;[....",
"....*;;;;;;;((;;;;;;;}....",
".....(;;;;;;;;;;;;;;-.....",
".....|1;;;;;;;;;;;;!~.....",
"......)!;;;;;;;;;;!)......",
".......>(;;;;;;;;{~.......",
".........]&%__%&}.........",
"..........................",
"..........................",
"..........................",
"..........................",
"..........................",
"..........................",
"..........................",
"..........................",
"..........................",
"..........................",
"..........................",
".........23~44~52.........",
"........6777777776........",
"......28777777777789......",
"......87777777777778......",
".....6777777777777776.....",
"....277777777777777770....",
"....a777>77777777>7773....",
"....~77>b67777776b>77~....",
"....4777cd67777cd67774....",
"....47777cd677cd677774....",
"....~77777cd6cd677777e....",
"....37777776bb6777777a....",
"....277777776677777779....",
".....6777777777777776.....",
"......87777777777778......",
"......98777777777789......",
"........6777777776........",
".........03e44e39.........",
"..........................",
"..........................",
"..........................",
"..........................",
"..........................",
".........................."};
