/* XPM */
static char * restoreA_xpm[] = {
"26 58 23 1",
" 	c None",
".	c #1D2021",
"+	c #BEBEBE",
"@	c #BCBCBC",
"#	c #C1C1C1",
"$	c #3C3C3C",
"%	c #373737",
"&	c #2D2D2D",
"*	c #393939",
"=	c #414141",
"-	c #575757",
";	c #636363",
">	c #676767",
",	c #565656",
"'	c #5E5E5E",
")	c #696969",
"!	c #666666",
"~	c #3D3D3D",
"{	c #686868",
"]	c #474747",
"^	c #444444",
"/	c #585858",
"(	c #626262",
"..........................",
"..........................",
"..........................",
"..........................",
"..........................",
"..........................",
"..........................",
"..........................",
"..........................",
"............++............",
"...........++++...........",
"..........@#$%@#..........",
".........@#$&&%@#.........",
"........++*&&&&*++........",
"........++*&&&&*++........",
".........@#$&&%@#.........",
"..........@#$%@#..........",
"...........++++...........",
"............++............",
"..........................",
"..........................",
"..........................",
"..........................",
"..........................",
"..........................",
"..........................",
"..........................",
"..........................",
"..........................",
"..........................",
"..........................",
"..........................",
"..........................",
"..........................",
".........=-;>>;,=.........",
"........'))))))))'........",
"......=!))))))))))!~......",
"......!))))){{)))))!......",
".....'))))){]]{)))))'.....",
"....=))))){]]]]{)))))^....",
"..../)))){]^{{]^{))))-....",
"....;))){]^{)){]^{)));....",
"....>)){]]{)))){]]{))>....",
"....>)){]]{)))){]]{))>....",
"....;))){]^{)){]^{)))(....",
"....-)))){]^{{]^{))))/....",
"....=))))){]]]]{)))))~....",
".....'))))){]]{)))))'.....",
"......!))))){{)))))!......",
"......~!))))))))))!~......",
"........'))))))))'........",
".........^-(>>(-~.........",
"..........................",
"..........................",
"..........................",
"..........................",
"..........................",
".........................."};
