/* XPM */
static char * restoreI_xpm[] = {
"26 58 27 1",
" 	c None",
".	c #242424",
"+	c #262626",
"@	c #595959",
"#	c #272727",
"$	c #5A5A5A",
"%	c #5C5C5C",
"&	c #282828",
"*	c #3F3F3F",
"=	c #565656",
"-	c #626262",
";	c #676767",
">	c #636363",
",	c #555555",
"'	c #404040",
")	c #363636",
"!	c #5D5D5D",
"~	c #696969",
"{	c #5E5E5E",
"]	c #343434",
"^	c #666666",
"/	c #3D3D3D",
"(	c #686868",
"_	c #353535",
":	c #444444",
"<	c #434343",
"[	c #3E3E3E",
"..........................",
"..........................",
"..........................",
"..........................",
"..........................",
"..........................",
"..........................",
"..........................",
"............++............",
"...........+@@+...........",
"..........+@@@@+..........",
".........#$%&#$%&.........",
"........#$%&..#$%&........",
".......+@@+....+@@+.......",
".......+@@+....+@@+.......",
"........#$%&..#$%&........",
".........#$%&#$%&.........",
"..........+@@@@+..........",
"...........+@@+...........",
"............++............",
"..........................",
"..........................",
"..........................",
"..........................",
"..........................",
"..........................",
"..........................",
"..........................",
"..........................",
"..........................",
"..........................",
"..........................",
"..........................",
"..........................",
".........*=-;;>,'.........",
".......)!~~~~~~~~{].......",
"......*^~~~~~~~~~~^/......",
".....)^~~~~~((~~~~~^_.....",
".....!~~~~~(::(~~~~~!.....",
"....*~~~~~(::::(~~~~~'....",
"....=~~~~(<'((<'(~~~~,....",
"....-~~~(<'(~~(<'(~~~>....",
"....;~~(::(~~~~(::(~~;....",
"....;~~(::(~~~~(::(~~;....",
"....-~~~(<'(~~(<'(~~~-....",
"....=~~~~(<'((<'(~~~~=....",
"....'~~~~~(::::(~~~~~[....",
".....!~~~~~(::(~~~~~{.....",
".....]^~~~~~((~~~~~^_.....",
"....../^~~~~~~~~~~^/......",
".......]!~~~~~~~~!_.......",
".........',-;;-,[.........",
"..........................",
"..........................",
"..........................",
"..........................",
"..........................",
".........................."};
