/* XPM */
static char * errmail_xpm[] = {
"16 16 8 1",
" 	c None",
".	c #7C858C",
"+	c #7D858D",
"@	c #FF6071",
"#	c #7C848B",
"$	c #7B858C",
"%	c #FF6172",
"&	c #7C868C",
"                ",
"                ",
" .............. ",
" ..          .. ",
" . .        . . ",
" .  .      .  . ",
" .   .    .   . ",
" .    .  .    . ",
" .   .+..       ",
" .  .+     @@@  ",
" . #$     @  @% ",
" . &      @ @ @ ",
" ..       @@  % ",
" ........  %@@  ",
"                ",
"                "};
