/* XPM */
static char * unreadmail_xpm[] = {
"16 16 6 1",
" 	c None",
".	c #7C858C",
"+	c #7D858D",
"@	c #7C848B",
"#	c #7C868C",
"$	c #7D858B",
"                ",
"                ",
" .............. ",
" ..          .. ",
" . .        . . ",
" .  .      .  . ",
" .   .    .   . ",
" .    .  .    . ",
" .   .+..+.   . ",
" .  ..    ..  . ",
" . @.      .. . ",
" . #        $ . ",
" ..          .. ",
" .............. ",
"                ",
"                "};
