/* XPM */
static char * workspacebuttonactive_xpm[] = {
"28 25 4 1",
" 	c None",
".	c #343738",
"+	c #35609E",
"@	c #589AFA",
"............................",
"++++++++++++++++++++++++++++",
"+@@@@@@@@@@@@@@@@@@@@@@@@@@+",
"+@@@@@@@@@@@@@@@@@@@@@@@@@@+",
"+@@@@@@@@@@@@@@@@@@@@@@@@@@+",
"+@@@@@@@@@@@@@@@@@@@@@@@@@@+",
"+@@@@@@@@@@@@@@@@@@@@@@@@@@+",
"+@@@@@@@@@@@@@@@@@@@@@@@@@@+",
"+@@@@@@@@@@@@@@@@@@@@@@@@@@+",
"+@@@@@@@@@@@@@@@@@@@@@@@@@@+",
"+@@@@@@@@@@@@@@@@@@@@@@@@@@+",
"+@@@@@@@@@@@@@@@@@@@@@@@@@@+",
"+@@@@@@@@@@@@@@@@@@@@@@@@@@+",
"+@@@@@@@@@@@@@@@@@@@@@@@@@@+",
"+@@@@@@@@@@@@@@@@@@@@@@@@@@+",
"+@@@@@@@@@@@@@@@@@@@@@@@@@@+",
"+@@@@@@@@@@@@@@@@@@@@@@@@@@+",
"+@@@@@@@@@@@@@@@@@@@@@@@@@@+",
"+@@@@@@@@@@@@@@@@@@@@@@@@@@+",
"+@@@@@@@@@@@@@@@@@@@@@@@@@@+",
"+@@@@@@@@@@@@@@@@@@@@@@@@@@+",
"+@@@@@@@@@@@@@@@@@@@@@@@@@@+",
"+@@@@@@@@@@@@@@@@@@@@@@@@@@+",
"++++++++++++++++++++++++++++",
"............................"};
