/* XPM */
static char * rolldownA_xpm[] = {
"20 40 227 2",
"  	c None",
". 	c #DEE1E6",
"+ 	c #DBE0E4",
"@ 	c #D8DEE2",
"# 	c #9EA4AB",
"$ 	c #6B727A",
"% 	c #4C535C",
"& 	c #414852",
"* 	c #D6DCE0",
"= 	c #B9C0C5",
"- 	c #606770",
"; 	c #676E78",
"> 	c #969FA7",
", 	c #B0BAC2",
"' 	c #B5C0C8",
") 	c #A6B0BA",
"! 	c #87919C",
"~ 	c #5E6670",
"{ 	c #D3DADF",
"] 	c #B7BEC4",
"^ 	c #4B525C",
"/ 	c #8F97A0",
"( 	c #BFC8D0",
"_ 	c #BAC3CC",
": 	c #B4BEC7",
"< 	c #AFB9C3",
"[ 	c #A9B4BF",
"} 	c #A4AFBA",
"| 	c #9EAAB6",
"1 	c #757F8B",
"2 	c #D0D8DD",
"3 	c #5F666F",
"4 	c #8E969F",
"5 	c #BEC7CF",
"6 	c #B8C2CB",
"7 	c #B3BDC6",
"8 	c #ADB8C2",
"9 	c #A8B3BE",
"0 	c #F2F3F4",
"a 	c #C3CFD4",
"b 	c #97A4B1",
"c 	c #929FAC",
"d 	c #6D7885",
"e 	c #CED6DB",
"f 	c #989FA6",
"g 	c #666E77",
"h 	c #BDC6CE",
"i 	c #B7C1CA",
"j 	c #B2BCC5",
"k 	c #ACB7C1",
"l 	c #A7B2BD",
"m 	c #A1ADB8",
"n 	c #919EAB",
"o 	c #8B99A7",
"p 	c #8694A3",
"q 	c #535C68",
"r 	c #CBD4D9",
"s 	c #676F78",
"t 	c #939CA4",
"u 	c #B6C0C9",
"v 	c #B0BBC4",
"w 	c #ABB6C0",
"x 	c #A5B1BC",
"y 	c #A0ACB7",
"z 	c #9AA7B3",
"A 	c #8A98A6",
"B 	c #8593A2",
"C 	c #7F8E9D",
"D 	c #677381",
"E 	c #C8D2D8",
"F 	c #4B525B",
"G 	c #AAB4BD",
"H 	c #AFBAC4",
"I 	c #AAB5BF",
"J 	c #BDC7CC",
"K 	c #99A6B2",
"L 	c #94A1AE",
"M 	c #8392A1",
"N 	c #7E8D9C",
"O 	c #788898",
"P 	c #6E7D8D",
"Q 	c #C6D0D6",
"R 	c #AEB9C3",
"S 	c #A8B4BE",
"T 	c #A3AFBA",
"U 	c #93A0AD",
"V 	c #8291A0",
"W 	c #7D8B9B",
"X 	c #778697",
"Y 	c #728193",
"Z 	c #6C7C8E",
"` 	c #4A525B",
" .	c #9EA9B3",
"..	c #A2AEB9",
"+.	c #9CA9B4",
"@.	c #7B8A9A",
"#.	c #768596",
"$.	c #708092",
"%.	c #6B7B8D",
"&.	c #627284",
"*.	c #C1CDD2",
"=.	c #656D76",
"-.	c #818B96",
";.	c #9BA7B4",
">.	c #96A2AF",
",.	c #7A8999",
"'.	c #758495",
").	c #6F7F91",
"!.	c #6A7A8C",
"~.	c #647588",
"{.	c #556273",
"].	c #BECBD1",
"^.	c #8E99A0",
"/.	c #5A636E",
"(.	c #8F9CAA",
"_.	c #69798B",
":.	c #637487",
"<.	c #5E6F83",
"[.	c #47515E",
"}.	c #BBC9CF",
"|.	c #5A636C",
"1.	c #6E7985",
"2.	c #8896A4",
"3.	c #627386",
"4.	c #5C6E82",
"5.	c #4E5B6B",
"6.	c #B9C7CD",
"7.	c #A2AFB5",
"8.	c #49515B",
"9.	c #67727F",
"0.	c #7C8B9B",
"a.	c #778696",
"b.	c #718192",
"c.	c #667789",
"d.	c #617285",
"e.	c #5B6D81",
"f.	c #4D5B6B",
"g.	c #B6C5CB",
"h.	c #9FADB4",
"i.	c #59626B",
"j.	c #505965",
"k.	c #606D7C",
"l.	c #667687",
"m.	c #657688",
"n.	c #5C6D7F",
"o.	c #516071",
"p.	c #46505D",
"q.	c #B3C3CA",
"r.	c #87949C",
"s.	c #616A73",
"t.	c #49515A",
"u.	c #B1C1C8",
"v.	c #AEBFC6",
"w.	c #808E9E",
"x.	c #576475",
"y.	c #526478",
"z.	c #4E6176",
"A.	c #516378",
"B.	c #54677B",
"C.	c #5E6F81",
"D.	c #5F6B7A",
"E.	c #54657A",
"F.	c #4C5F75",
"G.	c #4F6177",
"H.	c #516479",
"I.	c #54667B",
"J.	c #57697D",
"K.	c #596B7F",
"L.	c #5C6E81",
"M.	c #687889",
"N.	c #546579",
"O.	c #4D6075",
"P.	c #4F6277",
"Q.	c #526479",
"R.	c #55677B",
"S.	c #57697E",
"T.	c #DEE0E6",
"U.	c #5F7184",
"V.	c #6D7D8E",
"W.	c #576574",
"X.	c #4D6076",
"Y.	c #506378",
"Z.	c #53657A",
"`.	c #55677C",
" +	c #586A7E",
".+	c #5B6C80",
"++	c #637486",
"@+	c #657689",
"#+	c #68798B",
"$+	c #677380",
"%+	c #53667A",
"&+	c #56687C",
"*+	c #6B7C8D",
"=+	c #778595",
"-+	c #5F7083",
";+	c #697A8C",
">+	c #6E7F90",
",+	c #748495",
"'+	c #5A6C80",
")+	c #6C7D8E",
"!+	c #6F7F90",
"~+	c #728292",
"{+	c #5D6F82",
"]+	c #6D7D8F",
"^+	c #708091",
"/+	c #728293",
"(+	c #758595",
"_+	c #7C8A9A",
":+	c #617184",
"<+	c #6E7E8F",
"[+	c #738394",
"}+	c #8491A0",
"|+	c #647587",
"1+	c #768696",
"2+	c #798898",
"3+	c #7C8B9A",
"4+	c #6F7A86",
"5+	c #6A7A8B",
"6+	c #67788A",
"7+	c #8593A0",
"8+	c #707F90",
"9+	c #788797",
"0+	c #7A8A99",
"a+	c #7D8C9B",
"b+	c #8593A1",
"c+	c #7E8D9D",
"d+	c #6E7A87",
". . . . . . . . . . . . . . . . . . . . ",
"+ + + + + + + + + + + + + + + + + + + + ",
"@ @ @ @ @ @ # $ % & % $ # @ @ @ @ @ @ @ ",
"* * * * = - ; > , ' ) ! ~ - = * * * * * ",
"{ { { ] ^ / ( _ : < [ } | 1 ^ ] { { { { ",
"2 2 2 3 4 5 6 7 8 9 0 a b c d 3 2 2 2 2 ",
"e e f g h i j k l m 0 a n o p q f e e e ",
"r r s t u v w x y z 0 a A B C D s r r r ",
"E E F G H I 0 J K L 0 a M N O P F E E E ",
"Q Q & R S T 0 J U a 0 V W X Y Z & Q Q Q ",
"a a `  ...+.0 J a 0 a @.#.$.%.&.` a a a ",
"*.*.=.-.;.>.0 a 0 a ,.'.).!.~.{.=.*.*.*.",
"].].^./.L (.0 0 a J J J _.:.<.[.^.].].].",
"}.}.}.|.1.2.0 0 0 0 0 0 3.4.5.|.}.}.}.}.",
"6.6.6.7.8.9.0.a.b.Z c.d.e.f.8.7.6.6.6.6.",
"g.g.g.g.h.i.j.k.l.m.n.o.p.i.h.g.g.g.g.g.",
"q.q.q.q.q.q.r.s.t.& t.s.r.q.q.q.q.q.q.q.",
"u.u.u.u.u.u.u.u.u.u.u.u.u.u.u.u.u.u.u.u.",
"v.v.v.v.v.v.v.v.v.v.v.v.v.v.v.v.v.v.v.v.",
"w.w.w.w.w.w.w.w.w.w.w.w.w.w.w.w.w.w.w.w.",
". . . . . . . . . . . . . . . . . . . . ",
"+ + + + + + + + + + + + + + + + + + + + ",
"@ @ @ @ @ @ # $ % & % $ # @ @ @ @ @ @ @ ",
"* * * * = - x.y.z.A.B.C.D.- = * * * * * ",
"{ { { ] ^ E.F.G.H.I.J.K.L.M.^ ] { { { { ",
"2 2 2 3 N.O.P.Q.R.S.T.a U.3.V.3 2 2 2 2 ",
"e e f W.X.Y.Z.`. +.+T.a ++@+#+$+f e e e ",
"r r s N.A.%+&+K.e.<.T.a c.#+*+=+s r r r ",
"E E F H.I.J.T.J -+d.T.a ;+Z >+,+F E E E ",
"Q Q & R.S.'+T.J 3.a T.!.)+!+~+,+& Q Q Q ",
"a a `  +.+{+T.J a T.a ]+^+/+(+_+` a a a ",
"*.*.=.:+<.d.T.a T.a <+^+[+#.O }+=.*.*.*.",
"].].^.D.d.|+T.T.a J J J 1+2+3+4+^.].].].",
"}.}.}.|.5+6+T.T.T.T.T.T.,.0.7+|.}.}.}.}.",
"6.6.6.7.8.8+]+^+/+(+9+0+a+b+8.7.6.6.6.6.",
"g.g.g.g.h.i.$+2+2+O c+b+d+i.h.g.g.g.g.g.",
"q.q.q.q.q.q.r.s.t.& t.s.r.q.q.q.q.q.q.q.",
"u.u.u.u.u.u.u.u.u.u.u.u.u.u.u.u.u.u.u.u.",
"v.v.v.v.v.v.v.v.v.v.v.v.v.v.v.v.v.v.v.v.",
"w.w.w.w.w.w.w.w.w.w.w.w.w.w.w.w.w.w.w.w."};
