/* XPM */
static char * rollupI_xpm[] = {
"20 40 109 2",
"  	g None",
". 	g #CECECE",
"+ 	g #CCCCCC",
"@ 	g #CACACA",
"# 	g #8D8D8D",
"$ 	g #525252",
"% 	g #333333",
"& 	g #2A2A2A",
"* 	g #C9C9C9",
"= 	g #ACACAC",
"- 	g #474747",
"; 	g #4F4F4F",
"> 	g #878787",
", 	g #A5A5A5",
"' 	g #ABABAB",
") 	g #9B9B9B",
"! 	g #767676",
"~ 	g #464646",
"{ 	g #C7C7C7",
"] 	g #AAAAAA",
"^ 	g #7D7D7D",
"/ 	g #989898",
"( 	g #929292",
"_ 	g #616161",
": 	g #C5C5C5",
"< 	g #7C7C7C",
"[ 	g #D8D8D8",
"} 	g #D3D3D3",
"| 	g #D0D0D0",
"1 	g #D2D2D2",
"2 	g #8B8B8B",
"3 	g #858585",
"4 	g #595959",
"5 	g #C3C3C3",
"6 	g #4E4E4E",
"7 	g #B3B3B3",
"8 	g #BABABA",
"9 	g #848484",
"0 	g #7E7E7E",
"a 	g #787878",
"b 	g #3C3C3C",
"c 	g #C0C0C0",
"d 	g #838383",
"e 	g #898989",
"f 	g #777777",
"g 	g #717171",
"h 	g #BEBEBE",
"i 	g #323232",
"j 	g #9E9E9E",
"k 	g #707070",
"l 	g #696969",
"m 	g #5D5D5D",
"n 	g #BCBCBC",
"o 	g #A4A4A4",
"p 	g #747474",
"q 	g #6D6D6D",
"r 	g #676767",
"s 	g #626262",
"t 	g #5C5C5C",
"u 	g #919191",
"v 	g #979797",
"w 	g #666666",
"x 	g #5B5B5B",
"y 	g #515151",
"z 	g #B8B8B8",
"A 	g #4D4D4D",
"B 	g #6E6E6E",
"C 	g #8F8F8F",
"D 	g #5F5F5F",
"E 	g #5A5A5A",
"F 	g #535353",
"G 	g #414141",
"H 	g #B6B6B6",
"I 	g #434343",
"J 	g #888888",
"K 	g #828282",
"L 	g #6A6A6A",
"M 	g #313131",
"N 	g #B4B4B4",
"O 	g #7A7A7A",
"P 	g #636363",
"Q 	g #4C4C4C",
"R 	g #3A3A3A",
"S 	g #B2B2B2",
"T 	g #555555",
"U 	g #505050",
"V 	g #4B4B4B",
"W 	g #AFAFAF",
"X 	g #959595",
"Y 	g #424242",
"Z 	g #393939",
"` 	g #545454",
" .	g #3F3F3F",
"..	g #4A4A4A",
"+.	g #A8A8A8",
"@.	g #454545",
"#.	g #444444",
"$.	g #3D3D3D",
"%.	g #404040",
"&.	g #494949",
"*.	g #585858",
"=.	g #3E3E3E",
"-.	g #5E5E5E",
";.	g #656565",
">.	g #484848",
",.	g #6C6C6C",
"'.	g #646464",
").	g #575757",
"!.	g #6B6B6B",
". . . . . . . . . . . . . . . . . . . . ",
"+ + + + + + + + + + + + + + + + + + + + ",
"@ @ @ @ @ @ # $ % & % $ # @ @ @ @ @ @ @ ",
"* * * * = - ; > , ' ) ! ~ - = * * * * * ",
"{ { { ] % ^ / / / / / / ( _ % ] { { { { ",
": : : ~ < / [ } } } | 1 2 3 4 ~ : : : : ",
"5 5 > 6 7 / . . . 8 7 7 9 0 a b > 5 5 5 ",
"c c ; d ' / . @ . . e d ^ f g $ ; c c c ",
"h h i j , / . 7 7 . 8 < ! k l m i h h h ",
"n n & o j / . 7 > 8 . p q r s t & n n n ",
"8 8 i u v u . 7 0 a . 8 w _ x y i 8 8 8 ",
"z z A B C e d ^ f g . 8 D E F G A z z z ",
"H H 0 I J K < ! k L . 8 4 $ 6 M 0 H H H ",
"N N N I E O p B l P . 8 y Q R I N N N N ",
"S S S v M $ q r s t T U V R M v S S S S ",
"W W W W X Y Z Q T ` V  .M Y X W W W W W ",
"= = = = = = f ..M & M ..f = = = = = = = ",
"] ] ] ] ] ] ] ] ] ] ] ] ] ] ] ] ] ] ] ] ",
"+.+.+.+.+.+.+.+.+.+.+.+.+.+.+.+.+.+.+.+.",
"g g g g g g g g g g g g g g g g g g g g ",
". . . . . . . . . . . . . . . . . . . . ",
"+ + + + + + + + + + + + + + + + + + + + ",
"@ @ @ @ @ @ # $ % & % $ # @ @ @ @ @ @ @ ",
"* * * * = - I Y  .G @.A V - = * * * * * ",
"{ { { ] % #.$.%.Y #.- &.Q *.% ] { { { { ",
": : : ~ #.=.. . . . . . ; y m ~ : : : : ",
"5 5 > #.=.G . . 8 7 7 7 $ ` *.$ > 5 5 5 ",
"c c ; #.G #.. 8 . 8 U $ T *.x w ; c c c ",
"h h i Y #.- . 7 8 . 8 T 4 t -.;.i h h h ",
"n n & @.- ... 7 y 8 . E t D s ;.& n n n ",
"8 8 i >.V A . 7 ` *.. 8 _ P ;.,.i 8 8 8 ",
"z z A U 6 U $ T *.x . 8 '.w l p A z z z ",
"H H 0 V U F T 4 t -.. 8 w L q x 0 H H H ",
"N N N I E ).E t D s . 8 !.q f I N N N N ",
"S S S v M D m _ P ;.l !.B f M v S S S S ",
"W W W W X Y $ L L l k f E Y X W W W W W ",
"= = = = = = f ..M & M ..f = = = = = = = ",
"] ] ] ] ] ] ] ] ] ] ] ] ] ] ] ] ] ] ] ] ",
"+.+.+.+.+.+.+.+.+.+.+.+.+.+.+.+.+.+.+.+.",
"g g g g g g g g g g g g g g g g g g g g "};
