/* XPM */
static char * minimizeO_xpm[] = {
"26 58 46 1",
" 	c None",
".	c #2D2D2D",
"+	c #808080",
"@	c #B4B4B4",
"#	c #CFCFCF",
"$	c #DADADA",
"%	c #CECECE",
"&	c #B3B3B3",
"*	c #7F7F7F",
"=	c #656565",
"-	c #C5C5C5",
";	c #DEDEDE",
">	c #646464",
",	c #7B7B7B",
"'	c #D8D8D8",
")	c #7A7A7A",
"!	c #D7D7D7",
"~	c #636363",
"{	c #C3C3C3",
"]	c #7E7E7E",
"^	c #D2D2D2",
"/	c #515151",
"(	c #C4C4C4",
"_	c #D9D9D9",
":	c #C6C6C6",
"<	c #535353",
"[	c #B1B1B1",
"}	c #7D7D7D",
"|	c #616161",
"1	c #D6D6D6",
"2	c #434343",
"3	c #575757",
"4	c #676767",
"5	c #565656",
"6	c #3B3B3B",
"7	c #5E5E5E",
"8	c #696969",
"9	c #3A3A3A",
"0	c #666666",
"a	c #424242",
"b	c #444444",
"c	c #585858",
"d	c #363636",
"e	c #5F5F5F",
"f	c #353535",
"g	c #626262",
"..........................",
"..........................",
"..........................",
"..........................",
"..........................",
".........+@#$$%&*.........",
".......=-;;;;;;;;->.......",
"......,';;;;;;;;;;')......",
".....=';;;;;;;;;;;;!~.....",
".....{;;;;;;;;;;;;;;-.....",
"....+;;;;;;;;;;;;;;;;]....",
"....@;;;^;;;;;;;;^;;;&....",
"....#;;^/(;;;;;;(/^;;%....",
"...._;;;:<(;;;;:<(;;;_....",
"...._;;;;:<(;;:<(;;;;_....",
"....#;;;;;:<(:<(;;;;;%....",
"....@;;;;;;(//(;;;;;;[....",
"....*;;;;;;;((;;;;;;;}....",
".....(;;;;;;;;;;;;;;-.....",
".....|1;;;;;;;;;;;;!~.....",
"......)!;;;;;;;;;;!)......",
".......>(;;;;;;;;{~.......",
".........]&%__%&}.........",
"..........................",
"..........................",
"..........................",
"..........................",
"..........................",
"..........................",
"..........................",
"..........................",
"..........................",
"..........................",
"..........................",
".........23~44~52.........",
".......678888888879.......",
"......2088888888880a......",
".....6088888888888809.....",
".....7888888888888887.....",
"....28888888888888888b....",
"....c888>88888888>8883....",
"....~88>d78888887d>88~....",
"....4888ef78888ef78884....",
"....48888ef788ef788884....",
"....~88888ef7ef788888g....",
"....38888887dd7888888c....",
"....28888888778888888a....",
".....7888888888888887.....",
".....9088888888888809.....",
"......a088888888880a......",
".......978888888879.......",
".........b3g44g3a.........",
"..........................",
"..........................",
"..........................",
"..........................",
"..........................",
".........................."};
