/* XPM */
static char * restoreO_xpm[] = {
"26 58 46 1",
" 	c None",
".	c #2D2D2D",
"+	c #808080",
"@	c #B4B4B4",
"#	c #CFCFCF",
"$	c #DADADA",
"%	c #CECECE",
"&	c #B3B3B3",
"*	c #7F7F7F",
"=	c #656565",
"-	c #C5C5C5",
";	c #DEDEDE",
">	c #646464",
",	c #7B7B7B",
"'	c #D8D8D8",
")	c #7A7A7A",
"!	c #DCDCDC",
"~	c #D7D7D7",
"{	c #636363",
"]	c #C3C3C3",
"^	c #888888",
"/	c #7E7E7E",
"(	c #898989",
"_	c #838383",
":	c #DBDBDB",
"<	c #D9D9D9",
"[	c #B1B1B1",
"}	c #7D7D7D",
"|	c #C4C4C4",
"1	c #616161",
"2	c #D6D6D6",
"3	c #434343",
"4	c #575757",
"5	c #676767",
"6	c #565656",
"7	c #3B3B3B",
"8	c #5E5E5E",
"9	c #696969",
"0	c #3A3A3A",
"a	c #666666",
"b	c #424242",
"c	c #686868",
"d	c #474747",
"e	c #444444",
"f	c #585858",
"g	c #626262",
"..........................",
"..........................",
"..........................",
"..........................",
"..........................",
".........+@#$$%&*.........",
".......=-;;;;;;;;->.......",
"......,';;;;;;;;;;')......",
".....=';;;;;!!;;;;;~{.....",
".....];;;;;!^^!;;;;;-.....",
"....+;;;;;!^^^^!;;;;;/....",
"....@;;;;!(_:!(_:;;;;&....",
"....#;;;!(_:;;!(_:;;;%....",
"....<;;!^^!;;;;!^^!;;<....",
"....<;;!^^!;;;;!^^!;;<....",
"....#;;;!(_:;;!(_:;;;%....",
"....@;;;;!(_:!(_:;;;;[....",
"....*;;;;;!^^^^!;;;;;}....",
".....|;;;;;!^^!;;;;;-.....",
".....12;;;;;!!;;;;;~{.....",
"......)~;;;;;;;;;;~)......",
".......>|;;;;;;;;]{.......",
"........./&%<<%&}.........",
"..........................",
"..........................",
"..........................",
"..........................",
"..........................",
"..........................",
"..........................",
"..........................",
"..........................",
"..........................",
"..........................",
".........34{55{63.........",
".......789999999980.......",
"......3a9999999999ab......",
".....7a99999cc99999a0.....",
".....899999cddc999998.....",
"....399999cddddc99999e....",
"....f9999cdeccdec99994....",
"....{999cdec99cdec999{....",
"....599cddc9999cddc995....",
"....599cddc9999cddc995....",
"....{999cdec99cdec999g....",
"....49999cdeccdec9999f....",
"....399999cddddc99999b....",
".....899999cddc999998.....",
".....0a99999cc99999a0.....",
"......ba9999999999ab......",
".......089999999980.......",
".........e4g55g4b.........",
"..........................",
"..........................",
"..........................",
"..........................",
"..........................",
".........................."};
