/* XPM */
static char * linux2_xpm[] = {
"48 20 7 1",
" 	c None",
".	c #D7D7D7",
"+	c #C7C7C7",
"@	c #8A8682",
"#	c #D7D3CF",
"$	c #0C0C0C",
"%	c #CF8E1C",
".....................................+@@+.......",
".........+@........................#+$$$$@......",
".+$$$+...$$.........................@$$$$$+#....",
"..#$@#...++........................#$$$$$$@.....",
"..#$@+...++..+++@+..+@..++.+++++++..@@$@@$@+....",
"..+$@...+$$+@$$@$$@+$$.@$@.@$$+$@..+$@%@$$$+....",
"..#$@++..$$.+$$+.$@.@$..$@+.@$@@++.+@%%%%$$.+...",
"..+$@+...$$.+$$.+$@+@$++$@...$$++##+@+$%+$$+....",
"..#$@++$.$@++$$..$@+@$++$@+++$$$..#+$+#+#+$$+...",
".++$$++$.$$++$$++$@+@$$@$@++$++$@++$+##+++$$@...",
".+@@@@@@+@@+@@@+@@@++@++@@+@@++@@+@$.+.+#+@$$+..",
".+++++++++++.+.++++++++++++++%+++.$++#+.+#+$$@..",
"..+++++++.++++%++%+%%%%%%%%%%%%%%@$+.+.+.+.$$$+.",
"...++%+%%%%%%%%%%%%%%%%%%%%%+%+..$$.+.+.+.+$$$..",
".+%%%%%%%%%%%%%%%%%+%++++#+++##..%%+++++.++$$$#.",
".%%%%%%%%%%%%%+###+###########+++%%$@.+.++%@$%+.",
".+%%%%%%%+###.#################%%%%%$+.+++%%%%%+",
".%%%%%+######.#####.##########+%%%%%%++++$@%%%%+",
"##%%########...################+%%%%%$$$$$%%%%##",
"######..##..#####################+@@@+##.+@%++#+"};
