/* XPM */
static char * debian_xpm[] = {
"48 20 21 1",
" 	c None",
".	c #D6D6D4",
"+	c #8E8E8C",
"@	c #020204",
"#	c #39312C",
"$	c #A8A6A6",
"%	c #464643",
"&	c #626263",
"*	c #D1BFC1",
"=	c #DFB0B1",
"-	c #EB6161",
";	c #E57E81",
">	c #1A1A1C",
",	c #E2CAC9",
"'	c #EF3C3A",
")	c #E29C9D",
"!	c #76777E",
"~	c #CCCAC9",
"{	c #EC4E50",
"]	c #CA9E24",
"^	c #D1610C",
"................................................",
".+@@@@#........@+....@+.........................",
".+@..$%&.......@+....+*...............=-;.......",
".+@...*@+.#@#..@>@>..@+.&@@$.%>@@$...,'-)==.....",
".+@....@+#%.%&.@%.%#.@+$%.!%.%#.!#...;-*+*--*...",
".+@....@+@#%#@.@+.+@.@+.!>@%.%%.+@..,'=~!*;{,...",
".+@...$>$@&+++.@+.+@.@+&>$+%.%%.+@..)-,...)=....",
".+@..!>!.%>.&@.@>.>%.@+%>$>%.%%.+@..-).~~.*=....",
".$%%%%!...!%&*.%&%&..%$*&%!%$!!.$%.,{=.=).,=*...",
"...................................=-,.*=~.=)...",
"...................................=;......*-...",
"...........~.~.~~~$$~~$~~$.$$]$$$..=)......)'...",
".....~~~~.~~$$]$$]$^^^^^^^^^^^^^^..,),....,{-...",
"...~~]$]]^]]^]]^^^^^^##^^^^^&]......=....,-{,...",
".~]]]]]]]]]^]^^]^]^$%**%...%@.......,,,);{'=....",
".]]]]]]]]^]]].......@..%....%........,{'-)*.....",
".$]]]]]]]$...........@%+....%......,,)-;))=~....",
"~]]]]]$~............@#~.....%......)-{;);--=....",
"~~]]*~..............%@@@.@..%...................",
"....................@@@@.@..>..................."};
