/* XPM */
static char * linux20_xpm[] = {
"48 20 9 1",
" 	c None",
".	c #D5D5D3",
"+	c #C7C7C7",
"@	c #635D51",
"#	c #A8A6A0",
"$	c #D5D1C9",
"%	c #0C0C0C",
"&	c #D1610B",
"*	c #CA9C21",
".....................................+@@#.......",
".........#@........................$+%%%%@......",
".#%%%#...%%.........................@%%%%%#$....",
"..$%@$...+#........................$%%%%%%@.....",
"..$%@#...##..##+@#..+@..##.###+##+..@@%@@%@#....",
"..+%@...#%%+@%%@%%@+%%.@%@.@%%+%@..+@@&@%%%+....",
"..$%@#+..%%.#%%+.%@.@%..%@+.@%@@++.+@&***%%.+...",
"..+%@+...%%.#%%.+%@#@%++%@...%%++.++@#%*#%%#....",
"..$%@#+%.%@++%%..%@#@%++%@++#%%%...#%#$#$+%%+...",
".+#%%##%.%%+#%%++%@+@%%@%@++%+#%@++%#$$++#%%@...",
".#@@@@@@#@@#@@@#@@@##@##@@#@@##@@+@%.+.+$+@%%#..",
".++++#++++++.+.+++##++#++#+##*###.%#+$+.+$+%%@..",
"..+++++++.++##*##*#&&&&&&&&&&&&&&@%+.+.+.+.%%%+.",
"...++*#**&**&**&&&&&&&&&&&&&#*+..%%.+.+.+.+%%%..",
".+*********&*&&*&*&#*#@#+$++#+$..**#++++.+#%%%$.",
".********&****++$$#$+#@%#++@@@###**%@.+.++*@%*+.",
".#*******#$$$.$$$++$++$%+$$%+@@*****%#.+++&****+",
".*****#$$$$$$.$$+++.$+#@+++@#@@******+++#%@****#",
"+$**$$$$$$$$...$$+++.@%%#%##@%.#&****%%%%%&***$$",
"$$$$$$..$$..$$$$+.......++++#.$$$#@@@#$$.#@&#+$+"};
