/* XPM */
static char * closeA_xpm[] = {
"20 40 34 1",
" 	c None",
".	c #303030",
"+	c #4F3733",
"@	c #6E3E35",
"#	c #4E3732",
"$	c #6A3D35",
"%	c #D9563D",
"&	c #FF5E40",
"*	c #D8553D",
"=	c #683C34",
"-	c #8C4537",
";	c #FE5E40",
">	c #FD5D3F",
",	c #8B4437",
"'	c #D7553D",
")	c #4D3632",
"!	c #6F3E35",
"~	c #6C3D35",
"{	c #4C3632",
"]	c #D6553C",
"^	c #663C34",
"/	c #894437",
"(	c #FD5E40",
"_	c #A14939",
":	c #F95D40",
"<	c #FA5D3F",
"[	c #9A4738",
"}	c #6B3D34",
"|	c #693C34",
"1	c #6D3E35",
"2	c #693D35",
"3	c #683D35",
"4	c #A24A39",
"5	c #9B4838",
"....................",
"....................",
"....................",
"........+@@#........",
"......$%&&&&*=......",
".....-;&&&&&&>,.....",
"....$;&&&&&&&&>=....",
"....*&&&&&&&&&&'....",
"...+&&&&&&&&&&&&)...",
"...!&&&&&&&&&&&&@...",
"...@&&&&&&&&&&&&~...",
"...#&&&&&&&&&&&&{...",
"....'&&&&&&&&&&]....",
"....=>&&&&&&&&>^....",
".....,>&&&&&&>/.....",
"......='&&&&]^......",
"........{@@{........",
"....................",
"....................",
"....................",
"....................",
"....................",
"....................",
"........+@@#........",
"......$%&&&&*=......",
".....-;&&&&&&>,.....",
"....$;&&(&&(&&>=....",
"....*&&_$:<![&&'....",
"...+&&(}.||.}(&&)...",
"...!&&&<1..2:&&&@...",
"...@&&&<1..3:&&&~...",
"...#&&(}.||.}(&&{...",
"....'&&4$:<!5&&]....",
"....=>&&(&&(&&>^....",
".....,>&&&&&&>/.....",
"......='&&&&]^......",
"........{@@{........",
"....................",
"....................",
"...................."};
