/* XPM */
static char *close_inactive[] = {
/* columns rows colors chars-per-pixel */
"25 25 14 1 ",
"  c #252931",
". c #272B34",
"X c #272C34",
"o c #282C33",
"O c #2E323A",
"+ c #32363E",
"@ c #33383F",
"# c #454B53",
"$ c #464B54",
"% c #464C54",
"& c #484E56",
"* c #4D535B",
"= c #555A62",
"- c #565C64",
/* pixels */
"                         ",
"                         ",
"                         ",
"          XO+OX          ",
"        @&=---=&+        ",
"      X%---------$X      ",
"     o*-----------*X     ",
"     %-------------$     ",
"    +---------------+    ",
"    &---------------&    ",
"   X=---------------=.   ",
"   O-----------------O   ",
"   +-----------------+   ",
"   O-----------------O   ",
"   X=---------------=    ",
"    &---------------&    ",
"    +---------------+    ",
"     $-------------#     ",
"     X*-----------*.     ",
"      X$---------#.      ",
"        +&=---=&+        ",
"          .O+O           ",
"                         ",
"                         ",
"                         "
};
