/* XPM */
static char *closefcs_inactive[] = {
/* columns rows colors chars-per-pixel */
"34 34 12 1 ",
"  c #252931",
". c #292D35",
"X c #373C43",
"o c #373D45",
"O c #383C44",
"+ c #3E434B",
"@ c #434951",
"# c #444951",
"$ c #4A4F57",
"% c #4B5058",
"& c #545A62",
"* c #565C64",
/* pixels */
"                                  ",
"                                  ",
"                                  ",
"                                  ",
"                                  ",
"                                  ",
"                                  ",
"                                  ",
"             .o#$$@o.             ",
"            +&******&+            ",
"          .%**********%.          ",
"          $************%          ",
"         +**************+         ",
"        .&**************&.        ",
"        O****************o        ",
"        #****************@        ",
"        $****************$        ",
"        $****************$        ",
"        #****************@        ",
"        o****************X        ",
"        .&**************&.        ",
"         +**************+         ",
"          $************%          ",
"          .%**********%.          ",
"            +&******&+            ",
"             .o@$$@X.             ",
"                                  ",
"                                  ",
"                                  ",
"                                  ",
"                                  ",
"                                  ",
"                                  ",
"                                  "
};
