/* XPM */
static char *close[] = {
/* columns rows colors chars-per-pixel */
"25 25 19 1 ",
"  c #252931",
". c #2C2B34",
"X c #2F2C34",
"o c #43333B",
"O c #44343B",
"+ c #44333C",
"@ c #45343C",
"# c #533841",
"$ c #573A41",
"% c #583942",
"& c #9F515A",
"* c #A0525A",
"= c #A4535B",
"- c #A6535D",
"; c #A5545C",
": c #B75A62",
"> c #D3626B",
", c #D4636B",
"< c #D8646D",
/* pixels */
"                         ",
"                         ",
"                         ",
"          X+#+X          ",
"        $-,<<<>;$        ",
"      X*<<<<<<<<<&X      ",
"     X:<<<<<<<<<<<:X     ",
"     *<<<<<<<<<<<<<&     ",
"    %<<<<<<<<<<<<<<<$    ",
"    ;<<<<<<<<<<<<<<<;    ",
"   X,<<<<<<<<<<<<<<<>X   ",
"   +<<<<<<<<<<<<<<<<<O   ",
"   #<<<<<<<<<<<<<<<<<#   ",
"   @<<<<<<<<<<<<<<<<<+   ",
"   X,<<<<<<<<<<<<<<<>.   ",
"    -<<<<<<<<<<<<<<<-    ",
"    #<<<<<<<<<<<<<<<$    ",
"     &<<<<<<<<<<<<<&     ",
"     X:<<<<<<<<<<<:X     ",
"      X&<<<<<<<<<&X      ",
"        $-><<<>=$        ",
"          Xo#o.          ",
"                         ",
"                         ",
"                         "
};
