/* XPM */
static char *ek[] = {
/* columns rows colors chars-per-pixel */
"25 25 18 1 ",
"  c #252931",
". c #282A32",
"X c #37313E",
"o c #3A313F",
"O c #3B3240",
"+ c #553D52",
"@ c #62425B",
"# c #63435C",
"$ c #66445E",
"% c #694661",
"& c #B16392",
"* c #B26493",
"= c #B36494",
"- c #B56594",
"; c #B86796",
": c #BA6798",
"> c #C66DA1",
", c #DB75AF",
/* pixels */
"                         ",
"                         ",
"                         ",
"          o+@+o          ",
"       .%;,,,,,;%        ",
"      X-,,,,,,,,,*X      ",
"     X>,,,,,,,,,,,>X     ",
"    .-,,,,,,,,,,,,,*     ",
"    %,,,,,,,,,,,,,,,%    ",
"    :,,,,,,,,,,,,,,,;    ",
"   O,,,,,,,,,,,,,,,,,o   ",
"   +,,,,,,,,,,,,,,,,,+   ",
"   #,,,,,,,,,,,,,,,,,#   ",
"   +,,,,,,,,,,,,,,,,,+   ",
"   O,,,,,,,,,,,,,,,,,o   ",
"    ;,,,,,,,,,,,,,,,-    ",
"    %,,,,,,,,,,,,,,,$    ",
"     =,,,,,,,,,,,,,&     ",
"     X>,,,,,,,,,,,>X     ",
"      X*,,,,,,,,,&X      ",
"        %-,,,,,-$        ",
"          o+@+o          ",
"                         ",
"                         ",
"                         "
};
