/* XPM */
static char *min[] = {
/* columns rows colors chars-per-pixel */
"25 25 14 1 ",
"  c #252931",
". c #2A3237",
"X c #344443",
"o c #354544",
"O c #3C524D",
"+ c #3E564E",
"@ c #61967A",
"# c #62987B",
"$ c #649B7D",
"% c #649D7E",
"& c #6DAB87",
"* c #6EAD88",
"= c #7CC599",
"- c #7ECA9C",
/* pixels */
"                         ",
"                         ",
"                         ",
"          .oOo.          ",
"        +%=---=%+        ",
"      .#---------@.      ",
"     .*-----------&.     ",
"     #-------------@     ",
"    +---------------+    ",
"    %---------------%    ",
"   .=---------------=.   ",
"   o-----------------o   ",
"   O-----------------O   ",
"   o-----------------o   ",
"   .=---------------=.   ",
"    %---------------%    ",
"    O---------------+    ",
"     @-------------@     ",
"     .&-----------&.     ",
"      .@---------@.      ",
"        +%=---=$O        ",
"          .XOX.          ",
"                         ",
"                         ",
"                         "
};
