/* XPM */
static char * n9_xpm[] = {
"14 20 3 1",
" 	c None",
".	c #000000",
"+	c #7B97A7",
"..............",
"..............",
"...++++++++...",
"..++++++++++..",
"..++......++..",
"..++......++..",
"..++......++..",
"..++......++..",
"..++......++..",
"..++++++++++..",
"..++++++++++..",
"..........++..",
"..........++..",
"..........++..",
"..........++..",
"..........++..",
"..++++++++++..",
"...++++++++...",
"..............",
".............."};
