/* XPM */
static char * maxfcs_xpm[] = {
"24 24 8 1",
" 	c #353B45",
".	c #8A7D63",
"+	c #BBA578",
"@	c #8E8066",
"#	c #E4C588",
"$	c #F4D28F",
"%	c #EFCE8D",
"&	c #EBCB8B",
"                        ",
"                        ",
"                        ",
"                        ",
"                        ",
"                        ",
"          .++.          ",
"        @#$%%$#@        ",
"       .%&&&&&&&@       ",
"       #&&&&&&&&#       ",
"      .$&&&&&&&&$.      ",
"      +%&&&&&&&&%+      ",
"      +%&&&&&&&&%+      ",
"      .$&&&&&&&&$.      ",
"       #&&&&&&&&#       ",
"       .&&&&&&&%@       ",
"        @#$%%$#@        ",
"          .++.          ",
"                        ",
"                        ",
"                        ",
"                        ",
"                        ",
"                        "};
