/* XPM */
static char * stuckfcs_xpm[] = {
"24 24 9 1",
" 	c #282C35",
".	c #5F8983",
"+	c #79B8A8",
"@	c #628E86",
"#	c #8FDFC7",
"$	c #98EDD3",
"%	c #95E9CF",
"&	c #94E6CD",
"*	c #93E5CC",
"                        ",
"                        ",
"                        ",
"                        ",
"                        ",
"                        ",
"          .++.          ",
"        @#$%%$#@        ",
"       @&******&@       ",
"       #********#       ",
"      .$********$.      ",
"      +%********%+      ",
"      +%********%+      ",
"      .$********$.      ",
"       #********#       ",
"       @&******&@       ",
"        @#$%%$#@        ",
"          .++.          ",
"                        ",
"                        ",
"                        ",
"                        ",
"                        ",
"                        "};
