/* XPM */
static char * windows_xpm[] = {
"20 20 12 1",
" 	c None",
".	c #303030",
"+	c #313030",
"@	c #FFFFFF",
"#	c #414141",
"$	c #31312F",
"%	c #313130",
"&	c #313131",
"*	c #323232",
"=	c #FEFEFE",
"-	c #FDFDFC",
";	c #FCFCFB",
"....................",
"....................",
"......+++++.........",
"..@@@@@@@@@.........",
"..@#######@.........",
"..@#######@.........",
"..@#######@$%&&&....",
".+@###@@@@@@@@@&....",
".+@###@#######@&....",
".+@###@#######@*&&&&",
".+@@@=@###@@@@@@==-&",
".....$@###;=======@&",
"......@###@#######@&",
"......@###@#######@&",
"......@@@@@#######@&",
".........&@#######;&",
"..........@#######@&",
"..........@@@@@@@@@&",
"..........&&&&&&&&&&",
"...................."};
