/* XPM */
static char * restoreA_xpm[] = {
"20 40 22 1",
" 	c None",
".	c #303030",
"+	c #374731",
"@	c #3E5F32",
"#	c #364731",
"$	c #3D5C32",
"%	c #55AF34",
"&	c #5DCC35",
"*	c #54AF34",
"=	c #3C5A31",
"-	c #447532",
";	c #5DCB35",
">	c #5CCA35",
",	c #54AE34",
"'	c #364630",
")	c #3E6032",
"!	c #3D5D31",
"~	c #364530",
"{	c #54AD34",
"]	c #3B5931",
"^	c #437332",
"/	c #457932",
"....................",
"....................",
"....................",
"........+@@#........",
"......$%&&&&*=......",
".....-;&&&&&&>-.....",
"....$;&&&&&&&&>=....",
"....*&&&&&&&&&&,....",
"...+&&&&&&&&&&&&'...",
"...)&&&&&&&&&&&&@...",
"...@&&&&&&&&&&&&!...",
"...#&&&&&&&&&&&&~...",
"....,&&&&&&&&&&{....",
"....=>&&&&&&&&>]....",
".....->&&&&&&>^.....",
"......=,&&&&{]......",
"........~@@~........",
"....................",
"....................",
"....................",
"....................",
"....................",
"....................",
"........+@@#........",
"......$%&&&&*=......",
".....-;&&&&&&>-.....",
"....$;&&&&-&&&>=....",
"....*&&&&&.-&&&,....",
"...+&&&&&&..-&&&'...",
"...)&&&&&&...-&&@...",
"...@&&/...&&&&&&!...",
"...#&&&/..&&&&&&~...",
"....,&&&/.&&&&&{....",
"....=>&&&/&&&&>]....",
".....->&&&&&&>^.....",
"......=,&&&&{]......",
"........~@@~........",
"....................",
"....................",
"...................."};
