/* XPM */
static char * closefcs_xpm[] = {
"24 24 8 1",
" 	c #353B45",
".	c #744A54",
"+	c #9A565F",
"@	c #784B55",
"#	c #BA5F69",
"$	c #C6636C",
"%	c #C2626B",
"&	c #BF616A",
"                        ",
"                        ",
"                        ",
"                        ",
"                        ",
"                        ",
"          .++.          ",
"        @#$%%$#@        ",
"       @%&&&&&&&@       ",
"       #&&&&&&&&#       ",
"      .$&&&&&&&&$.      ",
"      +%&&&&&&&&%+      ",
"      +%&&&&&&&&%+      ",
"      .$&&&&&&&&$.      ",
"       #&&&&&&&&#       ",
"       .%&&&&&&&@       ",
"        @#$%%$#@        ",
"          .++.          ",
"                        ",
"                        ",
"                        ",
"                        ",
"                        ",
"                        "};
