/* XPM */
static char * stickfcs_xpm[] = {
"24 24 9 1",
" 	c #353B45",
".	c #6F5F74",
"+	c #927791",
"@	c #726277",
"#	c #AF8AA9",
"$	c #BA92B2",
"%	c #B790AF",
"&	c #B58FAE",
"*	c #B48EAD",
"                        ",
"                        ",
"                        ",
"                        ",
"                        ",
"                        ",
"          .++.          ",
"        @#$%%$#@        ",
"       @&&*****&.       ",
"       #*&******&       ",
"      .$********$.      ",
"      +$********%+      ",
"      +&********&+      ",
"      @$********$.      ",
"       #*********       ",
"       @&******&@       ",
"        @&$&&$&.        ",
"          @++.          ",
"                        ",
"                        ",
"                        ",
"                        ",
"                        ",
"                        "};
