/* XPM */
static char * stuckfcs_xpm[] = {
"24 24 10 1",
" 	c #353B45",
".	c #38444B",
"+	c #5F8983",
"@	c #79B8A8",
"#	c #628E86",
"$	c #8FDFC7",
"%	c #98EDD3",
"&	c #95E9CF",
"*	c #94E6CD",
"=	c #93E5CC",
"                        ",
"                        ",
"                        ",
"                        ",
"                        ",
"                        ",
"         .+@@+.         ",
"        #$%&&%$#        ",
"       #*======*#       ",
"      .$========$.      ",
"      +%========%+      ",
"      @&========&@      ",
"      @&========&@      ",
"      +%========%+      ",
"      .$========$.      ",
"       #*======*#       ",
"        #$%&&%$#        ",
"         .+@@+.         ",
"                        ",
"                        ",
"                        ",
"                        ",
"                        ",
"                        "};
