/* XPM */
static char * desktop_xpm[] = {
"21 19 126 2",
"  	c None",
". 	c #3069A0",
"+ 	c #31679A",
"@ 	c #2F6392",
"# 	c #316799",
"$ 	c #346DA2",
"% 	c #346CA1",
"& 	c #346DA1",
"* 	c #2F6292",
"= 	c #2D5C89",
"- 	c #2D5C8A",
"; 	c #306495",
"> 	c #306698",
", 	c #2E6290",
"' 	c #2E6292",
") 	c #30669A",
"! 	c #306AA0",
"~ 	c #3574AE",
"{ 	c #3976AE",
"] 	c #3873A9",
"^ 	c #3A76AE",
"/ 	c #3C7BB5",
"( 	c #3C7AB4",
"_ 	c #3872A9",
": 	c #356DA1",
"< 	c #366DA2",
"[ 	c #3974AB",
"} 	c #3872A8",
"| 	c #3873AA",
"1 	c #3875AD",
"2 	c #3E85C6",
"3 	c #4792D5",
"4 	c #4992D6",
"5 	c #4993D8",
"6 	c #4A95DB",
"7 	c #4A95DA",
"8 	c #4891D5",
"9 	c #468FD1",
"0 	c #478FD2",
"a 	c #4892D6",
"b 	c #4994D8",
"c 	c #4992D5",
"d 	c #4993D7",
"e 	c #468FD2",
"f 	c #3E84C5",
"g 	c #4490D6",
"h 	c #51A6F3",
"i 	c #54AAF9",
"j 	c #54A9F8",
"k 	c #54AAF8",
"l 	c #55ABFA",
"m 	c #4FA1ED",
"n 	c #438FD4",
"o 	c #438FD5",
"p 	c #51A4F1",
"q 	c #54A9F7",
"r 	c #53A8F6",
"s 	c #4EA0EB",
"t 	c #438ED3",
"u 	c #52A7F6",
"v 	c #51A7F6",
"w 	c #52A8F6",
"x 	c #50A7F6",
"y 	c #54A9F6",
"z 	c #5BAEF7",
"A 	c #60B1F7",
"B 	c #55AAF7",
"C 	c #62B3F7",
"D 	c #56ABF6",
"E 	c #5AAEF6",
"F 	c #57AAF7",
"G 	c #5AADF7",
"H 	c #51A5F3",
"I 	c #4FA8F7",
"J 	c #71B6F9",
"K 	c #AAD3FB",
"L 	c #C8E1FD",
"M 	c #83BFF9",
"N 	c #D5E7FD",
"O 	c #9AC8F9",
"P 	c #B0D3FA",
"Q 	c #C9E1FC",
"R 	c #8BC3FA",
"S 	c #C9E2FD",
"T 	c #A1CEFB",
"U 	c #67B1F8",
"V 	c #51A8F7",
"W 	c #4089CD",
"X 	c #4D9EE8",
"Y 	c #4EA2EE",
"Z 	c #51A4EE",
"` 	c #7AB7F1",
" .	c #B1D4F5",
"..	c #CCE1F6",
"+.	c #8EC2F3",
"@.	c #D9E6F7",
"#.	c #A2C9F3",
"$.	c #B7D4F4",
"%.	c #CEE0F6",
"&.	c #95C5F3",
"*.	c #CEE2F6",
"=.	c #A9D0F5",
"-.	c #6FB1F1",
";.	c #50A3EE",
">.	c #4EA2EF",
",.	c #4A9AE3",
"'.	c #3F88CB",
").	c #397EBE",
"!.	c #4592D8",
"~.	c #4595DE",
"{.	c #559DDF",
"].	c #6CAAE4",
"^.	c #76B1E8",
"/.	c #71B0E7",
"(.	c #76B0E6",
"_.	c #6FAFE7",
":.	c #74B0E7",
"<.	c #72AFE7",
"[.	c #71AFE7",
"}.	c #76B0E7",
"|.	c #71B1E7",
"1.	c #68A8E3",
"2.	c #509ADE",
"3.	c #4696DE",
"4.	c #428ED3",
"5.	c #387CBC",
"                                          ",
"                                          ",
". + @ # $ % % & * = - ; $ % % > , ' ) !   ",
"~ { ] ^ / ( ( / _ : < [ / ( / ^ } | 1 ~   ",
"2 3 4 5 6 7 7 6 8 9 0 a 6 7 7 b c d e f   ",
"g h i j j j j j j k k j j j j j j l m n   ",
"o p q r r r r r r r r r r r r r r j s t   ",
"o p q r r r r r r r r r r r r r r j s t   ",
"o p q r r r r r r r r r r r r r r j s t   ",
"o p q r r r r r r r r r r r r r r j s t   ",
"o p q r r r r r r r r r r r r r r j s t   ",
"o p q r r r r r r r r r r r r r r j s t   ",
"o p q r r r r r r r r r r r r r r j s t   ",
"o p q r r u v w x w v v w v u r r j s t   ",
"o p q w y z A B C D E A F A G r w j s t   ",
"g H i I J K L M N O P Q R S T U V i m o   ",
"W X Y Z `  ...+.@.#.$.%.&.*.=.-.;.>.,.'.  ",
").!.~.{.].^./.(._.:.<.[.}.|.^.1.2.3.4.5.  ",
"                                          "};
