/* XPM */
static char * expand_xpm[] = {
"10 20 4 1",
" 	c None",
".	c #343738",
"+	c #5D5F60",
"@	c #3A8ADD",
"  .++++.  ",
"  +@@@@+  ",
" +@@@@@@+ ",
" +@@@@@@+ ",
" +@@@@@@+ ",
" +@@@@@@+ ",
" +@@@@@@+ ",
" +@@@@@@+ ",
" +@@@@@@+ ",
" +@@@@@@+ ",
" +@@@@@@+ ",
" +@@@@@@+ ",
" +@@@@@@+ ",
" +@@@@@@+ ",
" +@@@@@@+ ",
" +@@@@@@+ ",
" +@@@@@@+ ",
"  +@@@@+  ",
"  .++++.  ",
"  ......  "};
