/* XPM */
static char * icewm_xpm[] = {
"50 20 77 1",
" 	c None",
".	c #3E3E3E",
"+	c #434343",
"@	c #FEFEFE",
"#	c #FDFDFD",
"$	c #888888",
"%	c #6E6E6E",
"&	c #FAFAFA",
"*	c #FFFFFF",
"=	c #6A6A6A",
"-	c #DDDDDD",
";	c #CCCCCC",
">	c #898989",
",	c #FCFCFC",
"'	c #EFEFEF",
")	c #626262",
"!	c #D5D5D5",
"~	c #F3F3F3",
"{	c #C4C4C4",
"]	c #4B4B4B",
"^	c #C8C8C8",
"/	c #979797",
"(	c #8C8C8C",
"_	c #DFDFDF",
":	c #787878",
"<	c #DEDEDE",
"[	c #D8D8D8",
"}	c #8A8A8A",
"|	c #E7E7E7",
"1	c #CECECE",
"2	c #474747",
"3	c #E9E9E9",
"4	c #D4D4D4",
"5	c #BFBFBF",
"6	c #E8E8E8",
"7	c #D0D0D0",
"8	c #F6F6F6",
"9	c #545454",
"0	c #7F7F7F",
"a	c #999999",
"b	c #9D9D9D",
"c	c #C5C5C5",
"d	c #DBDBDB",
"e	c #F5F5F5",
"f	c #EBEBEB",
"g	c #D9D9D9",
"h	c #D6D6D6",
"i	c #9A9A9A",
"j	c #E6E6E6",
"k	c #BDBDBD",
"l	c #5B5B5B",
"m	c #E5E5E5",
"n	c #7C7C7C",
"o	c #F7F7F7",
"p	c #DCDCDC",
"q	c #C3C3C3",
"r	c #989898",
"s	c #CFCFCF",
"t	c #535353",
"u	c #7D7D7D",
"v	c #737373",
"w	c #E3E3E3",
"x	c #DADADA",
"y	c #F1F1F1",
"z	c #4D4D4D",
"A	c #F4F4F4",
"B	c #D1D1D1",
"C	c #E4E4E4",
"D	c #666666",
"E	c #F9F9F9",
"F	c #FBFBFB",
"G	c #E2E2E2",
"H	c #8E8E8E",
"I	c #929292",
"J	c #EEEEEE",
"K	c #D7D7D7",
"L	c #C2C2C2",
" ................................................ ",
".++++++++++++++++++++++++++++++++++++++++++++++++.",
".++++++++++++++++++++++++++++++++++++++++++++++++.",
".++++++++++++++++++++++++++++++++++++++++++++++++.",
".+++++@#$+++++%&*=+++++++++++++++++++++++++++++++.",
".+++++@*-+++++;**=+++++++++++++++++++++++++++++++.",
".+++++@**>+++%,**=+++++++++++++++++++++++++++++++.",
".+++++@'*-+++;*'*=++)!&~{]++=*^!&'/++(*!++_*:++++.",
".+++++@<[*}+%,|1*=+23#4[*5++=**67#89+(*!++_*:++++.",
".+++++@_0@-+;*a1*=+b*c++de++=*f2+g*$+(*!++_*:++++.",
".+++++@_+h*i,j+1*=+k******l+=*m++1*/+(*!++_*:++++.",
".+++++@_+n@o*/+1*=+k*pcccq]+=*m++1*/+(*!++_*:++++.",
".+++++@_++4*m++1*=+r*s++2t++=*m++1*/+u*<++m*:++++.",
".+++++@_++v-}++1*=++w*x;y|++=*m++1*/+zA@BC**:++++.",
".+++++@_+++++++1*=++D!EFGH++=*m++1*/++IJFKL*:++++.",
".++++++++++++++++++++++++++++++++++++++++++++++++.",
".++++++++++++++++++++++++++++++++++++++++++++++++.",
".++++++++++++++++++++++++++++++++++++++++++++++++.",
".++++++++++++++++++++++++++++++++++++++++++++++++.",
" ................................................ "};
