/* XPM */
static char * icewm2_xpm[] = {
"50 20 34 1",
" 	c None",
".	c #3E3E3E",
"+	c #434343",
"@	c #FFFFFF",
"#	c #9B9B9B",
"$	c #A0A0A0",
"%	c #9E9E9E",
"&	c #868686",
"*	c #F5F5F5",
"=	c #898989",
"-	c #848484",
";	c #C4C4C4",
">	c #707070",
",	c #989898",
"'	c #999999",
")	c #5D616C",
"!	c #878787",
"~	c #818181",
"{	c #D1D1D1",
"]	c #A3A3A3",
"^	c #DBDBDB",
"/	c #565656",
"(	c #A6A6A6",
"_	c #9A9A9A",
":	c #F6F6F6",
"<	c #8B8B8B",
"[	c #797979",
"}	c #7F7F7F",
"|	c #808080",
"1	c #CECECE",
"2	c #787878",
"3	c #CFCFCF",
"4	c #ECECEC",
"5	c #858585",
" ................................................ ",
".++++++++++++++++++++++++++++++++++++++++++++++++.",
".++++++++++++++++++++++++++++++++++++++++++++++++.",
".++++++++++++++++++++++++++++++++++++++++++++++++.",
".++++++++++++++++++++++++++++++++++++++++++++++++.",
".+++++@@@+++++@@@++++++++++++++++++++++++++++++++.",
".+++++@@@#+++#@@@++++++++++++++++++++++++++++++++.",
".+++++@@$@+++@%@@+++&*@@=+++@@-@@;>++@@+++@@+++++.",
".+++++@@+@,+'@+@@++=@@)@@!++@@@+~@{++@@+++@@+++++.",
".+++++@@+]@+@#+@@++{@)))@^++@@+++@@++@@+++@@+++++.",
".+++++@@+/@@@++@@++@@@@@@@++@@+++@@++@@+++@@+++++.",
".+++++@@++(@_++@@++:@+++++++@@+++@@++@@+++@@+++++.",
".+++++@@+++++++@@++<@@++[@++@@+++@@++{@}+@@@+++++.",
".+++++@@+++++++@@+++|1@@@2++@@+++@@++>3@45@@+++++.",
".++++++++++++++++++++++++++++++++++++++++++++++++.",
".++++++++++++++++++++++++++++++++++++++++++++++++.",
".++++++++++++++++++++++++++++++++++++++++++++++++.",
".++++++++++++++++++++++++++++++++++++++++++++++++.",
".++++++++++++++++++++++++++++++++++++++++++++++++.",
" ................................................ "};
