/* XPM */
static char * xfreeos2_xpm[] = {
"105 20 3 1",
" 	c None",
".	c #FFFFFF",
"+	c #6666FF",
"...........................................................................++++++........................",
".................................................................++++.....+......+....+++++..............",
"......................................................++++++....++++.....++......++...+...+......+.......",
".+...................................................+++++++...++++++....+........++.+..........+.++++...",
"..+++...........................................++..++++++++...++++++++..+........++.++.........+.+..++..",
"..++++.......................................+++++..+++.++++..+++++++++.++........++.++...............+.+",
"...+++.+++++..............................++++++++.++++.+++...++++.++++.++........++..++++.....+......+.+",
"...+++++++++.+++++..................+++++.++++++++.++++++++...+++..++++..+........++....+++....+......+.+",
"....+++++++..++++++++.+++++++....++++++++.+++++.....++++++++..++++.++++..++.......++......++..........+..",
"....++++++...++++++++.+++++++++..++++++++.++++..++...+++++++..+++++++++..++.......+..+.....+..+.......+..",
"....++++++...++++++++.+++++++++..++++++...++++++++..+++..+++..++++++++....++.....+...+.....+..+......+...",
"....+++++....++++.....++++.+++++.++++.....++++++++.++++.++++...++++++......++++++....++...++.+......+....",
"...+++++++...+++++++..++++..++++.+++++++..+++++++..+++++++++....++++..................+++++..+.....+.....",
"..++++++++...+++++++..++++.+++++.+++++++..++++.....++++++++.......................................++.....",
"..+++++++++..+++++++..+++++++++..+++++++..++++.+++.++++++...................................+....++++++.+",
".+++++.++++..++++.....+++++++....++++.....++++++++..+++.....................................+...........+",
"..++++..++++.++++.....++++++++...++++.+++.++++++++.......................................................",
"........++++.++++.....++++.++++..++++++++.+++++++........................................................",
"...........++++++.....++++.++++..++++++++.+++............................................................",
"................+.....++++..++++.++++++++................................................................"};
