/* XPM */
static char *btn_templateA[] = {
/* columns rows colors chars-per-pixel */
"23 46 36 1 ",
"  c #282C34",
". c #333D4F",
"X c #354B6E",
"o c #323D4E",
"O c #35496A",
"+ c #3D79D9",
"@ c #4089FF",
"# c #3D78D8",
"$ c #344868",
"% c #37588C",
"& c #4088FE",
"* c #3F88FD",
"= c #37578B",
"- c #3D78D7",
"; c #323C4D",
": c #354B6F",
"> c #354A6C",
", c #323C4C",
"< c #3C77D6",
"1 c #344766",
"2 c #375689",
"3 c #3F82EE",
"4 c #333F52",
"5 c #333C4C",
"6 c #385B94",
"7 c gray19",
"8 c #385C95",
"9 c #3F86F7",
"0 c #323A48",
"q c #323A46",
"w c #3F85F5",
"e c #3B69B4",
"r c #3A69B4",
"t c #344560",
"y c #33435D",
"u c #3C75D2",
/* pixels */
"                       ",
"                       ",
"                       ",
"         .XXXo         ",
"         .XXXo         ",
"       O+@@@@@#$       ",
"      %&@@@@@@@*=      ",
"     O&@@@@@@@@@*$     ",
"     #@@@@@@@@@@@-     ",
"   ..@@@@@@@@@@@@@;;   ",
"   ::@@@@@@@@@@@@@XX   ",
"   ::@@@@@@@@@@@@@XX   ",
"   XX@@@@@@@@@@@@@>>   ",
"   oo@@@@@@@@@@@@@,,   ",
"     -@@@@@@@@@@@<     ",
"     $*@@@@@@@@@*1     ",
"      =*@@@@@@@*2      ",
"       $-@@@@@<1       ",
"         ,XXX,         ",
"         ,XXX,         ",
"                       ",
"                       ",
"                       ",
"                       ",
"                       ",
"                       ",
"         .XXXo         ",
"         .XXXo         ",
"       O+@@@@@#$       ",
"      %&@@@@@@@*=      ",
"     O&@@@@@@@@@*$     ",
"     #@@@@@@@@@@@-     ",
"   ..@@345555543@@;;   ",
"   ::@@@6777778@@@XX   ",
"   ::@@@6777778@@@XX   ",
"   XX@@@90777qw@@@>>   ",
"   oo@@@@e777r@@@@,,   ",
"     -@@@&tty&@@@<     ",
"     $*@@@uuu@@@*1     ",
"      =*@@@@@@@*2      ",
"       $-@@@@@<1       ",
"         ,XXX,         ",
"         ,XXX,         ",
"                       ",
"                       ",
"                       "
};
