/* XPM */
static char *btn_templateI[] = {
/* columns rows colors chars-per-pixel */
"23 46 27 1 ",
"  c #282C34",
". c gray29",
"X c #484848",
"o c #797979",
"O c #898989",
"+ c gray47",
"@ c gray28",
"# c gray34",
"$ c #888888",
"% c #565656",
"& c #494949",
"* c #777777",
"= c #444545",
"- c #555555",
"; c gray51",
": c #3E3E3E",
"> c gray23",
", c #5A5A5A",
"< c gray19",
"1 c #5B5B5B",
"2 c #868686",
"3 c #393939",
"4 c gray52",
"5 c #686868",
"6 c #444444",
"7 c gray26",
"8 c gray46",
/* pixels */
"                       ",
"                       ",
"                       ",
"          ...          ",
"          ...          ",
"       XoOOOOO+@       ",
"      #$OOOOOOO$%      ",
"     X$OOOOOOOOO$@     ",
"     +OOOOOOOOOOO+     ",
"     OOOOOOOOOOOOO     ",
"   ..OOOOOOOOOOOOO..   ",
"   ..OOOOOOOOOOOOO..   ",
"   ..OOOOOOOOOOOOO&&   ",
"     OOOOOOOOOOOOO     ",
"     +OOOOOOOOOOO*     ",
"     @$OOOOOOOOO$=     ",
"      %$OOOOOOO$-      ",
"       @+OOOOO*=       ",
"          ...          ",
"          ...          ",
"                       ",
"                       ",
"                       ",
"                       ",
"                       ",
"                       ",
"          ...          ",
"          ...          ",
"       XoOOOOO+@       ",
"      #$OOOOOOO$%      ",
"     X$OOOOOOOOO$@     ",
"     +OOOOOOOOOOO+     ",
"     OO;:>>>>>:;OO     ",
"   ..OOO,<<<<<1OOO..   ",
"   ..OOO,<<<<<1OOO..   ",
"   ..OOO23<<<34OOO&&   ",
"     OOOO5<<<5OOOO     ",
"     +OOO$667$OOO*     ",
"     @$OOO888OOO$=     ",
"      %$OOOOOOO$-      ",
"       @+OOOOO*=       ",
"          ...          ",
"          ...          ",
"                       ",
"                       ",
"                       "
};
