/* XPM */
static char * maximizeA_xpm[] = {
"23 46 20 1",
" 	c #282C34",
".	c #374731",
"+	c #3D5C32",
"@	c #3E6032",
"#	c #54AF34",
"$	c #98C379",
"%	c #3C5A31",
"&	c #447532",
"*	c #54AE34",
"=	c #364731",
"-	c #354530",
";	c #437332",
">	c #5DCC35",
",	c #5CCA35",
"'	c #5DCB35",
")	c #5BC635",
"!	c #4D9533",
"~	c #3F6631",
"{	c #498533",
"]	c #303030",
"                       ",
"                       ",
"                       ",
"         .+@@.         ",
"         .@@+.         ",
"       +#$$$$$#%       ",
"      &$$$$$$$$$&      ",
"     +$$$$$$$$$$$%     ",
"     #$$$$$$$$$$$*     ",
"   ..$$$$$$$$$$$$$.=   ",
"   @@$$$$$$$$$$$$$@@   ",
"   @@$$$$$$$$$$$$$+@   ",
"   +@$$$$$$$$$$$$$++   ",
"   ..$$$$$$$$$$$$$--   ",
"     #$$$$$$$$$$$*     ",
"     %$$$$$$$$$$$%     ",
"      ;$$$$$$$$$;      ",
"       %*$$$$$*%       ",
"         -@@+-         ",
"         -@+@-         ",
"                       ",
"                       ",
"                       ",
"                       ",
"                       ",
"                       ",
"         .@+@.         ",
"         .@@+.         ",
"       %*>>>>>*%       ",
"      &>>>>>>>,'&      ",
"     +'>>>,)>>>>,%     ",
"     *>>'!@&@~{>'*     ",
"   .->>>!>;+]]%)>>-    ",
"   ;@>>>%&))&]+>>>;%   ",
"   %@>>>+&*,%]&)''+@   ",
"   %+>>>@];+)&+,>>@+   ",
"   --,''%]]]+*!>''--   ",
"     *''&&+;&!>>'*     ",
"     %''>>>>>>>>)%     ",
"      &'>>>>>>>>&      ",
"       %*>'''>*%       ",
"         -+%+.         ",
"         -;%+.         ",
"                       ",
"                       ",
"                       "};
