/* XPM */
static char * menuButtonI_xpm[] = {
"23 46 19 1",
" 	c #282C34",
".	c #4A4A4A",
"+	c #484848",
"@	c #797979",
"#	c #898989",
"$	c #888888",
"%	c #575757",
"&	c #5B5B5B",
"*	c #5A5A5A",
"=	c #868686",
"-	c #444545",
";	c #777777",
">	c #3C3C3C",
",	c #3B3B3B",
"'	c #828282",
")	c #303030",
"!	c #686868",
"~	c #424242",
"{	c #464646",
"                       ",
"                       ",
"                       ",
"          ...          ",
"          ...          ",
"       +@###$$@+       ",
"      %$#######$&      ",
"     +$$########$+     ",
"     @$#########$@     ",
"     ###########$$     ",
"   +.###########$$..   ",
"   +.#############++   ",
"   +.$############.+   ",
"     $############     ",
"     @$$########$@     ",
"     +$$########$+     ",
"      *$###$$$$$*      ",
"       +@##$#$@+       ",
"          ...          ",
"          ...          ",
"                       ",
"                       ",
"                       ",
"                       ",
"                       ",
"                       ",
"          ...          ",
"          ...          ",
"       +@###$$@+       ",
"      *$####$$$$*      ",
"     +=$######$$=-     ",
"     @$$######$$=;     ",
"     ##$>>>,,,>'##     ",
"   +.###&)))))*$##..   ",
"   +.##$*)))))&$$#++   ",
"   ..##$=>)))>$$$$++   ",
"     $$$$!)))!$$$$     ",
"     @$$$$~{~$$$$@     ",
"     +$$$$@@@$$$=-     ",
"      &=$$$$$$$$*      ",
"       +@$$$$$@+       ",
"          ...          ",
"          +.+          ",
"                       ",
"                       ",
"                       "};
