/* XPM */
static char * menuButtonA_xpm[] = {
"23 46 25 1",
" 	c #282C34",
".	c #33435D",
"+	c #354A6C",
"@	c #344868",
"#	c #35496A",
"$	c #3D79D9",
"%	c #4089FF",
"&	c #4088FE",
"*	c #3D78D7",
"=	c #37588C",
"-	c #354B6F",
";	c #3C75D2",
">	c #3F88FD",
",	c #333F52",
"'	c #313945",
")	c #354B6E",
"!	c #323D4E",
"~	c #375689",
"{	c #3F82EE",
"]	c #344766",
"^	c #3F85F5",
"/	c #3F86F7",
"(	c #323A46",
"_	c #303030",
":	c #3B69B4",
"                       ",
"                       ",
"                       ",
"         .++@.         ",
"         .@+@.         ",
"       #$%&&&&*@       ",
"      =&%%%%&&%&-      ",
"     #&&%%%%&&%%&+     ",
"     ;&%%%%%%%%%>*     ",
"   ,.%&&%%%%%%%%&&'.   ",
"   )-%&&%%%%%%%%&&-+   ",
"   )-%%&%%%%%%%%%%-+   ",
"   ))&&&%%%%%%%%%%++   ",
"   !!&&&%%%%%%%%%%'.   ",
"     *>&%%%%%%%%>*     ",
"     #>&%%%%%%%%&.     ",
"      =>%%%%&&&&~      ",
"       .{%%%&&;.       ",
"         '++].         ",
"         '+#]'         ",
"                       ",
"                       ",
"                       ",
"                       ",
"                       ",
"                       ",
"         .-+..         ",
"         .-+#.         ",
"       +{^/%&&{@       ",
"      =%%%&&%/^>~      ",
"     .%%%%%%%%%%>@     ",
"     {%%%%%%%%%%&*     ",
"   ..%%&.(.(((.{%%..   ",
"   .-%%%~_____=&%%]+   ",
"   #-%%%=_____=%%%##   ",
"   #+%%%&(___(&%%%#]   ",
"   ..&%%%:___:%%&& .   ",
"     ;%%%&...&%%&&     ",
"     .&%%%;;;%%%%.     ",
"      -%%%%%%%%&=      ",
"       .{&%%%%{.       ",
"         '+#-.         ",
"         '@#.'         ",
"                       ",
"                       ",
"                       "};
