/* XPM */
static char * minimizeA_xpm[] = {
"23 46 19 1",
" 	c #282C34",
".	c #4F472A",
"+	c #6E5D23",
"@	c #6A5A24",
"#	c #D8AB0D",
"$	c #E5C07B",
"%	c #D6A90D",
"&	c #8C731D",
"*	c #8B721D",
"=	c #685924",
"-	c #4C442A",
";	c #6F5E24",
">	c #6C5C23",
",	c #FFC705",
"'	c #FEC605",
")	c #FDC505",
"!	c #987C1B",
"~	c #36342F",
"{	c #665724",
"                       ",
"                       ",
"                       ",
"         .+++.         ",
"         .+++.         ",
"       @#$$$$$%@       ",
"      &$$$$$$$$$*      ",
"     @$$$$$$$$$$$=     ",
"     #$$$$$$$$$$$%     ",
"   ..$$$$$$$$$$$$$-.   ",
"   ;;$$$$$$$$$$$$$++   ",
"   ;;$$$$$$$$$$$$$++   ",
"   ++$$$$$$$$$$$$$+>   ",
"   ..$$$$$$$$$$$$$--   ",
"     %$$$$$$$$$$$%     ",
"     @$$$$$$$$$$$=     ",
"      *$$$$$$$$$*      ",
"       =%$$$$$%=       ",
"         .+++-         ",
"         -+++-         ",
"                       ",
"                       ",
"                       ",
"                       ",
"                       ",
"                       ",
"         .+++.         ",
"         .+++.         ",
"       @#,,,,,%=       ",
"      *',,,,,,,'*      ",
"     @'',,,,,,,,)=     ",
"     #,',,,,,,'''%     ",
"   ..,,,,,,,,,,,,,.-   ",
"   ;;,!~~~~~~~~~!,++   ",
"   ;;,!~~~~~~~~~!,++   ",
"   ++,!~~~~~~~~~!,>>   ",
"   ..',,,,,,,,,,''--   ",
"     %,',,,,,,,,'%     ",
"     ='',,,,,,,,){     ",
"      *',,,,,,''*      ",
"       =%,'',,%=       ",
"         .+++-         ",
"         -+++-         ",
"                       ",
"                       ",
"                       "};
