/* XPM */
static char * restoreA_xpm[] = {
"23 46 16 1",
" 	c #282C34",
".	c #374731",
"+	c #3D5C32",
"@	c #3E6032",
"#	c #54AF34",
"$	c #5DCC35",
"%	c #3C5A31",
"&	c #447532",
"*	c #5DCB35",
"=	c #5CCA35",
"-	c #54AE34",
";	c #364731",
">	c #354530",
",	c #437332",
"'	c #303030",
")	c #457932",
"                       ",
"                       ",
"                       ",
"         .+@@.         ",
"         .@@+.         ",
"       +#$$$$$#%       ",
"      &*$$$$$$$=&      ",
"     +*$$$$$$$$$=%     ",
"     #$$$$$$$$$$$-     ",
"   ..$$$$$$$$$$$$$.;   ",
"   @@$$$$$$$$$$$$$@@   ",
"   @@$$$$$$$$$$$$$+@   ",
"   +@$$$$$$$$$$$$$++   ",
"   ..$$$$$$$$$$$$$>>   ",
"     #$$$$$$$$$$=-     ",
"     %*$$$$$$$$$*%     ",
"      &*$$$$$$$$,      ",
"       %-$$$$$-%       ",
"         >@@+>         ",
"         >@+@>         ",
"                       ",
"                       ",
"                       ",
"                       ",
"                       ",
"                       ",
"         ;@+@.         ",
"         ;@@+.         ",
"       %#$$$$$-%       ",
"      &*$$$$$$=*&      ",
"     +**$$$$&$$$=%     ",
"     -$$$$$$'&$$*-     ",
"   ..$$$$$$$''&$$$>;   ",
"   @@$$$$$$$'''&$$@+   ",
"   @@$$$$$$$'''&$$@+   ",
"   @+$$)''''$$$$$$+%   ",
"   ..$$$)'''$$$$**>>   ",
"     -$$$)''$$$$*-     ",
"     %**$$))$$$$*%     ",
"      &=$$$$$$$$&      ",
"       %-$$$$$-%       ",
"         >+@@>         ",
"         >+@+>         ",
"                       ",
"                       ",
"                       "};
