/* XPM */
static char *rolldownA[] = {
/* columns rows colors chars-per-pixel */
"23 46 149 2 ",
"   c #414852",
".  c #46505D",
"X  c #47515E",
"o  c #49515A",
"O  c #4A525B",
"+  c #4B525B",
"@  c #4B525C",
"#  c #4C535C",
"$  c #4D5B6B",
"%  c #505965",
"&  c #535C68",
"*  c #4C5F75",
"=  c #59626B",
"-  c #5A636C",
";  c #5A636E",
":  c #5F666F",
">  c #4F6177",
",  c #516071",
"<  c #556273",
"1  c #576475",
"2  c #5E6670",
"3  c #506378",
"4  c #526479",
"5  c #53657A",
"6  c #546579",
"7  c #54657A",
"8  c #54677B",
"9  c #55677B",
"0  c #55677C",
"q  c #56687C",
"w  c #5F6B7A",
"e  c #586A7E",
"r  c #596B7F",
"t  c #5C6D7F",
"y  c #606770",
"u  c #616A73",
"i  c #656D76",
"p  c #666E77",
"a  c #676E78",
"s  c #676F78",
"d  c #606D7C",
"f  c #67727F",
"g  c #6B727A",
"h  c #5A6C80",
"j  c #5D6F82",
"k  c #5F7184",
"l  c #677381",
"z  c #617285",
"x  c #637486",
"c  c #647587",
"v  c #6E7985",
"b  c #6E7A87",
"n  c #667789",
"m  c #67788A",
"M  c #687889",
"N  c #69798B",
"B  c #6A7A8B",
"V  c #697A8C",
"C  c #6B7C8D",
"Z  c #6C7C8E",
"A  c #6E7E8F",
"S  c #757F8B",
"D  c #6E7F90",
"F  c #707F90",
"G  c #708091",
"H  c #728292",
"J  c #738394",
"K  c #758595",
"L  c #778595",
"P  c #788797",
"I  c #788898",
"U  c #798898",
"Y  c #7A8999",
"T  c #7A8A99",
"R  c #7C8A9A",
"E  c #7D8B9B",
"W  c #7D8C9B",
"Q  c #7E8D9C",
"!  c #7F8E9D",
"~  c #818B96",
"^  c #808E9E",
"/  c #87919C",
"(  c #87949C",
")  c #8E969F",
"_  c #8291A0",
"`  c #8593A2",
"'  c #8694A3",
"]  c #8F97A0",
"[  c #8896A4",
"{  c #8A98A6",
"}  c #8F9CAA",
"|  c #939CA4",
" . c #969FA7",
".. c #989FA6",
"X. c #919EAB",
"o. c #93A0AD",
"O. c #94A1AE",
"+. c #96A2AF",
"@. c #9EA4AB",
"#. c #97A4B1",
"$. c #99A6B2",
"%. c #9BA7B4",
"&. c #9EA9B3",
"*. c #9CA9B4",
"=. c #9FADB4",
"-. c #A2AFB5",
";. c #A1ADB8",
":. c #A6B0BA",
">. c #A5B1BC",
",. c #A7B2BD",
"<. c #AAB4BD",
"1. c #A8B4BE",
"2. c #AAB5BF",
"3. c #ACB7C1",
"4. c #AEB9C3",
"5. c #AFB9C3",
"6. c #AEBFC6",
"7. c #B0BAC2",
"8. c #B2BCC5",
"9. c #B7BEC4",
"0. c #B4BEC7",
"q. c #B9C0C5",
"w. c #B1C1C8",
"e. c #B3C3CA",
"r. c #B5C0C8",
"t. c #B7C1CA",
"y. c #B6C5CB",
"u. c #B8C2CB",
"i. c #BAC3CC",
"p. c #B9C7CD",
"a. c #BDC7CC",
"s. c #BEC7CF",
"d. c #BBC9CF",
"f. c #BFC8D0",
"g. c #BECBD1",
"h. c #C1CDD2",
"j. c #C3CFD4",
"k. c #C6D0D6",
"l. c #C8D2D8",
"z. c #CBD4D9",
"x. c #CED6DB",
"c. c #D0D8DD",
"v. c #D3DADF",
"b. c #D6DCE0",
"n. c #D8DEE2",
"m. c #DBE0E4",
"M. c #DEE0E6",
"N. c #DEE1E6",
"B. c #F2F3F4",
/* pixels */
"N.N.N.N.N.N.N.N.m.N.N.N.N.N.N.N.N.N.N.N.N.N.N.",
"m.m.m.m.m.m.m.m.m.N.m.m.m.m.m.m.m.m.m.m.m.N.m.",
"n.n.n.n.n.n.n.@.g O     O g @.n.m.m.n.n.N.m.n.",
"b.b.b.b.b.q.y a X.5.t.u.>./ : : q.v.v.v.v.v.v.",
"v.n.v.v.b.q.y a  .5.t.0.-./ : : q.v.v.v.v.v.v.",
"v.v.v.9.9.@ ] f.i.0.4.4.1.>.*.G # q.v.v.v.v.v.",
"v.x.x.: : ) s.u.8.4.1.,.B.k.#.#.v : v.c.v.c.c.",
"x.x.@.i i s.t.8.3.,.;.=.B.j.X.{ [ &  ...c.c.x.",
"x.z.a | | t.5.3.,.=.*.#.B.k.{ ' W f s s z.z.z.",
"l.l.O <.1.5.<.B.p.$.o.+.B.l.! Q T G O # l.l.z.",
"k.k.  5.5.,.>.B.d.o.k.k.B.! W K H G     k.k.k.",
"k.k.  5.5.,.>.B.a.o.k.g.B./ W I H B     k.k.k.",
"k.j.+ =.&.-.&.B.a.k.B.B.j.T K G B x O O k.k.h.",
"s.j.i W ~ *.+.B.k.B.k.k.T K G B x < i i h.j.d.",
"f.g.) ; - o.} B.B.f.p.p.a.a.M x k O ) ) s.s.j.",
"d.d.d.- ; v ' B.B.B.B.B.B.B.x t $ - d.d.p.a.a.",
"p.p.d.-.-.# l T I H B G m k h $ O =.d.y.d.d.y.",
"y.y.y.y.e.*.= $ d c c c t > . = =.y.y.y.y.e.y.",
"e.e.e.e.t.e.w.( 2 +     o 2 ( w.e.e.e.e.e.e.e.",
"e.e.e.e.e.e.w.( 2 +     + u / w.e.e.e.e.e.e.e.",
"w.w.w.w.w.w.w.w.y.w.w.w.w.w.w.w.w.w.w.w.w.w.w.",
"w.w.6.6.w.w.w.6.w.w.w.w.w.w.6.6.w.w.w.w.w.w.w.",
"! _ T T ! ! ! Q ( ! T T / ! ! ! W ! ! ! T ! ! ",
"N.N.N.N.N.N.N.N.N.N.N.m.N.N.N.N.N.N.N.N.m.N.N.",
"m.m.m.m.m.m.m.m.m.m.m.m.m.m.m.m.m.m.m.N.N.N.m.",
"b.m.b.m.m.b.m.@.g +     # g @.m.m.b.m.v.m.v.m.",
"b.b.b.b.v.q.; 1 3 > > 4 8 t w 2 q.v.v.n.v.n.v.",
"b.b.b.b.v.q.w 1 > > 4 4 q k w 2 q.v.n.v.n.v.v.",
"v.v.c.q.q.# q > > 4 4 8 q e t M # q.c.v.c.v.v.",
"c.c.c.2 : 6 > > 3 8 q h N.k.k c G : c.c.c.c.c.",
"c.x.@.< < > > 3 8 e t e N.k.c c B f @.| x.x.x.",
"x.l.p 8 4 1 3 q e k k t m.k.M B B L p p z.z.z.",
"k.k.+ 4 4 8 q N.s.k z z N.k.C C G K O # l.l.l.",
"k.k.  q 4 e t N.p.k j.k.b.C C G G K     k.k.k.",
"k.k.  q 4 q t N.a.z k.k.n.B C F H K     k.k.k.",
"k.k.+ q e t k N.a.k.N.n.j.C H H K T @ o k.g.k.",
"s.g.i k x k x m.j.n.j.j.F F J K I ( w i g.k.f.",
"g.g.) w w k x m.M.j.a.j.f.s.K Y Q b ] ] g.g.g.",
"d.d.d.- - V M m.M.M.n.N.N.N.R R ( ; d.d.d.f.f.",
"d.p.p.-.-.+ G G F F K K Y Y R ` . =.p.p.p.p.d.",
"y.y.y.y.y.=.= l R U Y K ! ` v = =.y.y.y.y.y.y.",
"e.e.e.e.e.e.e./ u +     @ u ( w.e.e.e.e.e.e.e.",
"e.e.e.e.e.e.e.' u o     @ u ( e.w.e.e.w.e.e.e.",
"w.w.w.w.w.w.8.6.6.u.8.w.w.w.w.w.w.t.w.6.w.w.w.",
"w.w.6.6.6.6.6.6.6.6.w.w.w.w.w.w.w.6.6.w.6.w.w.",
"! ! _ Y ! _ ! _ ! ! ! ! ! Y ! T _ _ Y _ T _ T "
};
