/* XPM */
static char *rollupI[] = {
/* columns rows colors chars-per-pixel */
"23 46 42 1 ",
"  c #2A2A2A",
". c gray20",
"X c #393939",
"o c #3C3C3C",
"O c gray26",
"+ c gray28",
"@ c #4B4B4B",
"# c #4E4E4E",
"$ c #505050",
"% c gray33",
"& c gray35",
"* c gray36",
"= c gray39",
"- c #646464",
"; c #6A6A6A",
": c gray43",
"> c gray44",
", c #747474",
"< c gray48",
"1 c #7E7E7E",
"2 c #838383",
"3 c gray52",
"4 c #888888",
"5 c #8D8D8D",
"6 c gray57",
"7 c #979797",
"8 c #989898",
"9 c gray62",
"0 c #A4A4A4",
"q c gray66",
"w c #ACACAC",
"e c gray70",
"r c #B6B6B6",
"t c gray73",
"y c gray",
"u c #C3C3C3",
"i c gray78",
"p c #CACACA",
"a c #CECECE",
"s c #D0D0D0",
"d c LightGray",
"f c #D8D8D8",
/* pixels */
"aaaaaaaaaaaaaaaaaaaaaaa",
"paappaapaaappapaappaapp",
"ppppppp5$.  .$5pppppppp",
"pppipw+#40wq8<@+0ppppip",
"ppippw+#40ww9,++wpppipi",
"iiiqq.188888786=.qiiiii",
"uii++18fsdssss43&@iiiui",
"uu3##e8aaayter21<o33uuu",
"yy$23q8apaaa421<>$##yuy",
"yy.9908areaat1,>;&..yyy",
"ty 0098ae4tta,:;-*  tyy",
"yt 0098ae3tta>:-=*  ytt",
"tt.6676ae1<<at-=&$..ttt",
"tr#::5421,>>at=&%O##rtt",
"rr1O+321,>;;at&$#.11rrr",
"ereOO&<,>;-=at$@XOeeeer",
"eee78 $:;-**%$#X.7eeree",
"wewee7+X@%%%#o.O6ewwwew",
"qwwwqww,@.  .@,wwwwwwww",
"wwwwwww<#    @<wwwwwwww",
"qwqwwqwqqqwqqwqwqwwqwqq",
"qqqqqqqqqqqqqqqqqqqqqqq",
">>>>>>>>>>>>>>>>>>>>>>>",
"saasaasasassaaaaaasasas",
"aapapapaapapapaapappapp",
"ppppppp5%.  .$4pppppppp",
"ppiipw+OOoOO+#@+wpppppp",
"ippppq@OOoOO+#@+qpippip",
"iiiqq.OooO+O+@#&.qpiiii",
"iui+++oaaaaaaa$$*@uiiuu",
"uu4+OoOaateree$%&$33iuu",
"yy#O+O+atatt$$%&*-$$yyu",
"yy.OOO+aetaat%&**-..yyy",
"yt +++@ae$tta&&==-  tyt",
"tt OO+@ae$tta&**=-  yty",
"tt.@@@#se%&&at=--;..ttt",
"tr####$$%&**at--;,##trt",
"rr1@#$%%&***at-::&11rrr",
"reeOO&%&*===at::,Oeeeee",
"eee77.=&==--;;:,.7eeeee",
"ewwew7O$;;;;>,&+7weewee",
"qwwwwww<#   .@<qwwqwwqw",
"wwwwwww<@.  .#,wwwwwwww",
"qwwqwqqwqqqqqqwqwqwqqwq",
"qqqqqqqqqqqqqqqqqqqqqqq",
">>>,,>>>>>,>>>>>>>>,,>>"
};
