/* XPM */
static char *rollupA[] = {
/* columns rows colors chars-per-pixel */
"23 46 151 2 ",
"   c #414852",
".  c #46505D",
"X  c #49515A",
"o  c #4A525B",
"O  c #4B525B",
"+  c #4B525C",
"@  c #4C535C",
"#  c #4D5B6B",
"$  c #505965",
"%  c #535C68",
"&  c #4C5F75",
"*  c #59626B",
"=  c #5A636C",
"-  c #5A636E",
";  c #5F666F",
":  c #4D6075",
">  c #516071",
",  c #556273",
"<  c #576475",
"1  c #5E6670",
"2  c #516378",
"3  c #546579",
"4  c #54657A",
"5  c #54667B",
"6  c #55677B",
"7  c #57697D",
"8  c #5F6B7A",
"9  c #586A7E",
"0  c #596B7F",
"q  c #5C6D7F",
"w  c #606770",
"e  c #616A73",
"r  c #656D76",
"t  c #666E77",
"y  c #676E78",
"u  c #676F78",
"i  c #606D7C",
"p  c #67727F",
"a  c #6B727A",
"s  c #5A6C80",
"d  c #5B6C80",
"f  c #5C6E82",
"g  c #5F7184",
"h  c #677380",
"j  c #617285",
"k  c #627284",
"l  c #627386",
"z  c #637487",
"x  c #667687",
"c  c #6D7885",
"v  c #6E7A87",
"b  c #657688",
"n  c #67788A",
"m  c #68798B",
"M  c #69798B",
"N  c #6A7A8B",
"B  c #697A8C",
"V  c #6B7B8D",
"C  c #6B7C8D",
"Z  c #6E7D8D",
"A  c #6C7D8E",
"S  c #757F8B",
"D  c #6F7F91",
"F  c #707F90",
"G  c #708091",
"H  c #708092",
"J  c #728193",
"K  c #728292",
"L  c #728293",
"P  c #748495",
"I  c #778595",
"U  c #768596",
"Y  c #768696",
"T  c #778697",
"R  c #788898",
"E  c #7A8999",
"W  c #7A8A99",
"Q  c #7C8B9A",
"!  c #7D8B9B",
"~  c #7D8C9B",
"^  c #7D8C9C",
"/  c #7E8D9C",
"(  c #7E8D9D",
")  c #7F8E9D",
"_  c #818B96",
"`  c #808E9E",
"'  c #87919C",
"]  c #87949C",
"[  c #8E969F",
"{  c #8392A1",
"}  c #8593A2",
"|  c #8694A3",
" . c #8F97A0",
".. c #8896A4",
"X. c #8997A5",
"o. c #8E99A0",
"O. c #8A98A6",
"+. c #8B99A7",
"@. c #8F9CAA",
"#. c #939CA4",
"$. c #969FA7",
"%. c #989FA6",
"&. c #919EAB",
"*. c #929FAC",
"=. c #93A0AD",
"-. c #94A1AE",
";. c #95A2AF",
":. c #9EA4AB",
">. c #97A4B1",
",. c #9BA7B4",
"<. c #9EA9B3",
"1. c #9EAAB6",
"2. c #9FADB4",
"3. c #A2AFB5",
"4. c #A3AFBA",
"5. c #A4AFBA",
"6. c #A6B0BA",
"7. c #AAB4BD",
"8. c #A8B4BE",
"9. c #AEB9C3",
"0. c #AEBFC6",
"q. c #B0BAC2",
"w. c #B7BEC4",
"e. c #B9C0C5",
"r. c #B1C1C8",
"t. c #B3C3CA",
"y. c #B6C0C9",
"u. c #B6C5CB",
"i. c #B9C7CD",
"p. c #BDC7CC",
"a. c #BDC6CE",
"s. c #BBC9CF",
"d. c #BECBD1",
"f. c #C1CDD2",
"g. c #C3CFD4",
"h. c #C6D0D6",
"j. c #C8D2D8",
"k. c #CBD4D9",
"l. c #CED6DB",
"z. c #D0D8DD",
"x. c #D3DADF",
"c. c #D6DCE0",
"v. c #D8DDE2",
"b. c #D8DEE2",
"n. c #DBE0E4",
"m. c #DEE0E6",
"M. c #DEE1E6",
"N. c #E1E3E7",
"B. c #E3E5E9",
"V. c #E4E6E9",
"C. c #EBECED",
/* pixels */
"M.M.M.M.M.M.M.M.M.M.M.M.M.M.M.M.M.M.M.M.N.N.n.",
"n.n.n.n.n.n.n.n.b.N.M.M.M.b.M.b.M.b.n.M.n.n.x.",
"b.b.b.b.b.b.b.:.a @     o a :.b.b.b.x.b.n.n.x.",
"c.c.c.c.c.e.w y =.7.r.e.6.] ; ; e.x.b.x.x.n.x.",
"c.c.c.c.c.e.w y =.7.e.r.5.' 1 w e.b.x.x.x.x.x.",
"c.c.z.w.w.+  .4.6.6.6.6.5.5.1.S @ e.x.z.x.x.x.",
"l.z.z.; ; [ 4.C.B.V.B.N.N.B.>.-.c ; l.l.x.x.z.",
"l.l.%.t t a.4.M.M.M.h.h.a.a.*.X...% =.:.x.l.l.",
"k.k.y #.#.y.6.M.n.M.M.M.>.@.X.} ] a u u k.k.k.",
"j.j.+ 7.7.9.1.M.d.i.M.M.g.} { ^ P G o o j.j.j.",
"h.h.  9.9.8.6.M.a.*.g.g.N.| ^ T P N     h.h.h.",
"h.h.  9.9.8.4.M.p.=.g.g.b.| ^ T P N     h.h.h.",
"h.g.o <.<.3.,.M.p.O.O.| M.g.T F N l o o h.h.d.",
"g.d.t ! _ <.>.@.O.} ` ^ M.g.F M l , r u h.s.s.",
"d.d.[ = = >.@.X.{ ^ R R M.g.M z g . [ [ p.h.f.",
"s.s.s.= = c } ' ~ R L L M.g.l f # - s.s.p.p.f.",
"u.p.s.3.3.o h R T G C C x l f # o 3.i.i.i.i.i.",
"u.u.u.u.u.2.= $ 8 x n x 7 > . * 2.u.u.u.u.u.u.",
"t.t.t.t.r.u.u.] e o     + e ] u.t.t.u.t.t.t.t.",
"t.t.t.t.t.r.r.' e o     o e ' r.t.t.t.t.t.t.t.",
"r.r.r.r.r.r.r.r.r.r.r.r.r.r.r.r.r.r.r.r.r.r.t.",
"r.r.0.0.r.r.0.0.r.0.0.0.0.r.0.0.r.r.r.r.0.r.r.",
") ) Q ^ ` ` ` ^ { ) Q ^ ` ` ` ` W ) ] ) ^ ) ) ",
"M.M.M.M.M.M.M.M.M.M.M.M.M.M.M.M.n.n.n.M.n.n.n.",
"n.n.n.n.n.n.n.n.b.b.M.b.M.M.b.M.m.b.n.b.n.n.c.",
"c.n.b.b.b.n.b.:.a @     @ a :.b.b.b.b.b.b.b.b.",
"c.c.c.c.c.e.1 , 2 2 2 2 6 g 8 ; w.b.c.c.b.b.c.",
"c.c.c.c.c.e.e 2 4 & 2 2 6 f 8 1 w.v.c.c.c.c.c.",
"x.x.x.w.w.@ 4 : 2 2 7 7 7 q q n + w.z.c.c.c.z.",
"z.z.z.; 1 4 : M.c.B.b.m.M.M.g l D 1 z.z.z.z.z.",
"l.l.$., < : 2 M.c.h.p.p.p.p.l n M p =.$.l.l.l.",
"j.l.a 4 4 2 7 c.g.M.g.g.l l x n A T y y k.k.k.",
"j.j.@ 2 2 6 6 N.a.g.M.b.h.M M A G P o o h.k.j.",
"j.g.  4 6 9 f b.a.z g.g.M.M D S K P     h.h.h.",
"j.g.  9 6 9 f N.a.l g.g.m.B B D P P     h.h.h.",
"g.g.o 9 9 9 f b.a.x M M m.h.H H P W o o h.h.d.",
"g.g.t l g g l l n n B B m.h.G P W { r r d.h.d.",
"p.a.[ 8 8 g x n B C G G m.h.P W ^ c [ o.d.d.d.",
"a.s.s.* = M n C G G K K n.h.R ^ ] * s.s.s.s.s.",
"d.s.u.3.3.o A A G G T T Y R Q X.X 3.i.i.i.s.i.",
"u.u.u.u.u.2.* l T Y P Q Q } v = 2.t.u.u.u.u.u.",
"t.t.t.t.t.t.t.] 1 o     X 1 ] t.t.t.t.t.t.t.t.",
"t.t.t.t.t.t.r.] r o     o ; ] t.t.t.t.t.t.t.t.",
"r.r.r.r.r.r.r.r.t.r.r.r.t.r.r.t.r.r.r.r.r.r.r.",
"r.t.r.r.r.r.r.r.r.r.r.r.r.t.r.r.r.r.r.r.r.t.r.",
"~ ~ Q Q ) ^ ^ ^ ^ ) Q ) ^ ^ ^ Q ) ^ ^ ^ Q ^ Q "
};
