/* XPM */
static char *rolldownI[] = {
/* columns rows colors chars-per-pixel */
"23 46 42 1 ",
"  c #2A2A2A",
". c #323232",
"X c gray20",
"o c #3A3A3A",
"O c #3C3C3C",
"+ c gray26",
"@ c gray28",
"# c #494949",
"$ c #4E4E4E",
"% c #505050",
"& c gray33",
"* c gray35",
"= c gray37",
"- c gray38",
"; c #646464",
": c gray42",
"> c gray43",
", c #747474",
"< c #767676",
"1 c gray48",
"2 c gray49",
"3 c #838383",
"4 c gray52",
"5 c #888888",
"6 c #8D8D8D",
"7 c gray57",
"8 c gray59",
"9 c #989898",
"0 c gray62",
"q c #A2A2A2",
"w c gray65",
"e c #A9A9A9",
"r c #ACACAC",
"t c gray70",
"y c #B6B6B6",
"u c gray73",
"i c gray",
"p c #C3C3C3",
"a c gray78",
"s c #CACACA",
"d c #CECECE",
"f c gray87",
/* pixels */
"ddddddddddddddddddddddd",
"sddssddsdddssddssddsdss",
"sssssss6%X  .%6ssssssss",
"sssasr@$4wee0,##easssas",
"ssassr@$4wee0,@#rsssasa",
"aaaee.2yyeww097-.eaaaaa",
"paa@@2yrwq90fu54*#aaapa",
"pp4$$trwq088fu421O44ppp",
"ii%33ew09867fu21,$$$ipi",
"ii.00wqfy655fu,>>=..iii",
"iu wq09fy5uuf,>;-*  uii",
"ui qw09ft4uuf,>:-=  iuu",
"uu.7787ftuffu:;-*%..uuu",
"yu$>>65fufuu:;-*%+$$yuu",
"yy2+@53ffutttt*%$.22yyy",
"yty++*1fffffff%$o+yytty",
"ttt88.%:>;==&%$o.9ytttt",
"rtrtr8+o#&%%$O.+8eyeyre",
"errrrrr2#.  .#2erreerrr",
"rrrrrrr,#.  .#,rrrrrrrr",
"eeereeeeeeeeeeeeeeeeree",
"eeeeweeeeeeeweeeeeweeew",
">,,>,>>,>,,>,>>,,>,>,>,",
"ddddddddddddddddddddddd",
"sdssdsdsdddsdsdsdsdssds",
"sssssss6%X  X%6ssssssss",
"sssssr#++O++##$@essassa",
"saasse#+++o+@$#@essasss",
"aaaee.+Oo+#+##$*.eaaaaa",
"pap@@@O++@@@du$%=#aaaap",
"pp5@@O++#@$#du%&*%44ppa",
"pi$+@O@@##$$du&*=;$$ipi",
"ii.++@@dt$%%du*==;..iii",
"ui @+@#dt%uud*==;;  iii",
"ui +@@$dt%uud**--;  uiu",
"uu.@##$dtuddu=--;:..uuu",
"uy$%%$%duduu=--;:,$$yuy",
"yy2#$%%dduyyyt;>>*22yyy",
"ytt++*&ddddddd>>,+ttytt",
"ttt88.-=----:>>,.8ttttt",
"yreyr8@%::::>,*+8yeyery",
"errrrre,#.  .#1rrrrrrrr",
"errrrrr1#.  .%,rrrrrrrr",
"rereereeeeeeeeeeeeeeree",
"eewewweeewewwwwwwweeewe",
",>>,,>,>,>,>,,,,,>,>,>,"
};
