/* XPM */
static char * minimizeA_xpm[] = {
"26 58 24 1",
" 	c None",
".	c #2D2D2D",
"+	c #5F5F5F",
"@	c #D6D6D6",
"#	c #7D7D7D",
"$	c #797979",
"%	c #7A7A7A",
"&	c #434343",
"*	c #575757",
"=	c #636363",
"-	c #676767",
";	c #565656",
">	c #3B3B3B",
",	c #5E5E5E",
"'	c #696969",
")	c #3A3A3A",
"!	c #666666",
"~	c #424242",
"{	c #444444",
"]	c #585858",
"^	c #646464",
"/	c #363636",
"(	c #353535",
"_	c #626262",
"..........................",
"..........................",
"..........................",
"..........................",
"..........................",
"..........................",
"..........................",
"..........................",
"..........................",
"..........................",
"..........................",
"........+........+........",
".......+@#......#@+.......",
"........$@#....%@#........",
".........$@#..%@#.........",
"..........$@#%@#..........",
"...........#@@#...........",
"............##............",
"..........................",
"..........................",
"..........................",
"..........................",
"..........................",
"..........................",
"..........................",
"..........................",
"..........................",
"..........................",
"..........................",
"..........................",
"..........................",
"..........................",
"..........................",
"..........................",
".........&*=--=;&.........",
".......>,'''''''',).......",
"......&!''''''''''!~......",
".....>!''''''''''''!).....",
".....,'''''''''''''',.....",
"....&''''''''''''''''{....",
"....]'''^''''''''^'''*....",
"....=''^/,'''''',/^''=....",
"....-'''+(,''''+(,'''-....",
"....-''''+(,''+(,''''-....",
"....='''''+(,+(,'''''_....",
"....*'''''',//,'''''']....",
"....&''''''',,'''''''~....",
".....,'''''''''''''',.....",
".....)!''''''''''''!).....",
"......~!''''''''''!~......",
".......),'''''''',).......",
".........{*_--_*~.........",
"..........................",
"..........................",
"..........................",
"..........................",
"..........................",
".........................."};
