/* XPM */
static char * taskbarbg_xpm[] = {
"1 30 3 1",
" 	c None",
".	c #2D3335",
"+	c #232729",
".",
"+",
"+",
"+",
"+",
"+",
"+",
"+",
"+",
"+",
"+",
"+",
"+",
"+",
"+",
"+",
"+",
"+",
"+",
"+",
"+",
"+",
"+",
"+",
"+",
"+",
"+",
"+",
"+",
"+"};
