/* XPM */
static char * windows_xpm[] = {
"21 19 75 1",
" 	c None",
".	c #F6F7F8",
"+	c #FBFBFC",
"@	c #FDFDFE",
"#	c #FFFFFF",
"$	c #BDC9F4",
"%	c #7A9AEE",
"&	c #F8F9FA",
"*	c #FCFCFD",
"=	c #FEFEFF",
"-	c #FEFEFE",
";	c #BFCBF6",
">	c #7D9CF0",
",	c #FBFCFD",
"'	c #C1CDF7",
")	c #819FF2",
"!	c #C1CCF7",
"~	c #819FF1",
"{	c #FFFFFE",
"]	c #C4CFF8",
"^	c #81A0F2",
"/	c #AFBBE1",
"(	c #B4C2EB",
"_	c #B7C6F1",
":	c #B7C5F0",
"<	c #B6C5F1",
"[	c #B5C4F1",
"}	c #B8C7F1",
"|	c #91A9F0",
"1	c #7093F0",
"2	c #537AD7",
"3	c #5F88E7",
"4	c #658FF0",
"5	c #648EEE",
"6	c #638EED",
"7	c #608BE9",
"8	c #658FE7",
"9	c #668FE9",
"0	c #678FEB",
"a	c #5176DE",
"b	c #5B85EE",
"c	c #618CF7",
"d	c #5C89F6",
"e	c #6E93F5",
"f	c #A5B7EF",
"g	c #B6C4F1",
"h	c #B6C5F0",
"i	c #5478DD",
"j	c #5E87EE",
"k	c #648EF6",
"l	c #5787F5",
"m	c #86A2F5",
"n	c #EFF2F8",
"o	c #5887F5",
"p	c #85A1F5",
"q	c #EBEFF7",
"r	c #5479DE",
"s	c #5F88EF",
"t	c #658FF8",
"u	c #5988F6",
"v	c #85A2F6",
"w	c #EBF0F8",
"x	c #FEFFFF",
"y	c #5075D8",
"z	c #587FE3",
"A	c #5C84EA",
"B	c #4F7DE8",
"C	c #7F99EA",
"D	c #E7EBF4",
"E	c #4D73D3",
"F	c #5178DA",
"G	c #547ADE",
"H	c #4573DD",
"I	c #7992E0",
"J	c #E3E7F0",
"                     ",
"                     ",
" .+@@@@@#$%$#@@@@@+. ",
" &*=----#;>;#----=*& ",
" ,-######')'######-, ",
" ,-######!~!######-, ",
" ,-######!~!######-, ",
" {#######]^]#######{ ",
" /(_::<[}|1|}[<::_(/ ",
" 2345678890988765432 ",
" abcdef[g<h<g[fedcba ",
" ijklmn#######nmlkji ",
" ijkopq=#####=qpokji ",
" ijkopq=#####=qpokji ",
" rstuvwx#####xwvutsr ",
" yzABCD@=---=@DCBAzy ",
" EFGHIJ*@@@@@*JIHGFE ",
"                     ",
"                     "};
