#define triangle_width 13
#define triangle_height 13
static unsigned char triangle_bits[] = {
   0xe0, 0x00, 0xf0, 0x01, 0xf8, 0x03, 0xfc, 0x07, 0xfc, 0x07, 0xfe, 0x0f,
   0xfe, 0x0f, 0xff, 0x1f, 0xff, 0x1f, 0xff, 0x1f, 0xff, 0x1f, 0xfe, 0x0f,
   0xfc, 0x07 };
