/* XPM */
static char * slash_xpm[] = {
"9 20 3 1",
" 	c None",
".	c #000000",
"+	c #7B97A7",
".........",
".........",
"......+..",
"......+..",
".....++..",
".....++..",
".....+...",
"....++...",
"....++...",
"....+....",
"...++....",
"...++....",
"...+.....",
"..++.....",
"..++.....",
"..+......",
"..+......",
"..+......",
".........",
"........."};
