/* XPM */
static char * maximizeI_xpm[] = {
"26 58 20 1",
" 	c None",
".	c #1D2021",
"+	c #3E3E3E",
"@	c #656565",
"#	c #3D3D3D",
"$	c #3F3F3F",
"%	c #565656",
"&	c #626262",
"*	c #676767",
"=	c #636363",
"-	c #555555",
";	c #404040",
">	c #292A2B",
",	c #5D5D5D",
"'	c #696969",
")	c #5E5E5E",
"!	c #212324",
"~	c #666666",
"{	c #252727",
"]	c #2F2F2F",
"..........................",
"..........................",
"..........................",
"..........................",
"..........................",
"..........................",
"..........................",
"..........................",
"..........................",
"..........................",
"............++............",
"...........+@@+...........",
"..........#@+#@+..........",
".........#@+..#@+.........",
"........#@+....#@+........",
"........@+......+@........",
"..........................",
"..........................",
"..........................",
"..........................",
"..........................",
"..........................",
"..........................",
"..........................",
"..........................",
"..........................",
"..........................",
"..........................",
"..........................",
"..........................",
"..........................",
"..........................",
"..........................",
"..........................",
".........$%&**=-;.........",
".......>,'''''''')!.......",
"......$~''''''''''~#......",
".....>~''''''''''''~{.....",
".....,'''''''''''''',.....",
"....$''''''',,''''''';....",
"....%'''''',]],''''''-....",
"....&''''')],)],'''''=....",
"....*'''')],'')],''''*....",
"....*''')],'''')],'''*....",
"....&''=],'''''',]=''&....",
"....%'''=''''''''='''%....",
"....;''''''''''''''''+....",
".....,'''''''''''''').....",
".....!~''''''''''''~{.....",
"......#~''''''''''~#......",
".......!,'''''''',{.......",
".........;-&**&-+.........",
"..........................",
"..........................",
"..........................",
"..........................",
"..........................",
".........................."};
