/* XPM */
static char * restoreO_xpm[] = {
"26 58 44 1",
" 	c None",
".	c #1D2021",
"+	c #808080",
"@	c #B4B4B4",
"#	c #CFCFCF",
"$	c #DADADA",
"%	c #CECECE",
"&	c #B3B3B3",
"*	c #7F7F7F",
"=	c #656565",
"-	c #C5C5C5",
";	c #DEDEDE",
">	c #646464",
",	c #7B7B7B",
"'	c #D8D8D8",
")	c #7A7A7A",
"!	c #DCDCDC",
"~	c #D7D7D7",
"{	c #636363",
"]	c #C3C3C3",
"^	c #888888",
"/	c #7E7E7E",
"(	c #898989",
"_	c #838383",
":	c #DBDBDB",
"<	c #D9D9D9",
"[	c #B1B1B1",
"}	c #7D7D7D",
"|	c #C4C4C4",
"1	c #616161",
"2	c #D6D6D6",
"3	c #414141",
"4	c #575757",
"5	c #676767",
"6	c #565656",
"7	c #5E5E5E",
"8	c #696969",
"9	c #666666",
"0	c #3D3D3D",
"a	c #686868",
"b	c #474747",
"c	c #444444",
"d	c #585858",
"e	c #626262",
"..........................",
"..........................",
"..........................",
"..........................",
"..........................",
".........+@#$$%&*.........",
".......=-;;;;;;;;->.......",
"......,';;;;;;;;;;')......",
".....=';;;;;!!;;;;;~{.....",
".....];;;;;!^^!;;;;;-.....",
"....+;;;;;!^^^^!;;;;;/....",
"....@;;;;!(_:!(_:;;;;&....",
"....#;;;!(_:;;!(_:;;;%....",
"....<;;!^^!;;;;!^^!;;<....",
"....<;;!^^!;;;;!^^!;;<....",
"....#;;;!(_:;;!(_:;;;%....",
"....@;;;;!(_:!(_:;;;;[....",
"....*;;;;;!^^^^!;;;;;}....",
".....|;;;;;!^^!;;;;;-.....",
".....12;;;;;!!;;;;;~{.....",
"......)~;;;;;;;;;;~)......",
".......>|;;;;;;;;]{.......",
"........./&%<<%&}.........",
"..........................",
"..........................",
"..........................",
"..........................",
"..........................",
"..........................",
"..........................",
"..........................",
"..........................",
"..........................",
"..........................",
".........34{55{63.........",
"........7888888887........",
"......39888888888890......",
"......988888aa888889......",
".....788888abba888887.....",
"....388888abbbba88888c....",
"....d8888abcaabca88884....",
"....{888abca88abca888{....",
"....588abba8888abba885....",
"....588abba8888abba885....",
"....{888abca88abca888e....",
"....48888abcaabca8888d....",
"....388888abbbba888880....",
".....788888abba888887.....",
"......988888aa888889......",
"......09888888888890......",
"........7888888887........",
".........c4e55e40.........",
"..........................",
"..........................",
"..........................",
"..........................",
"..........................",
".........................."};
