/* XPM */
static char * rollupA_xpm[] = {
"20 40 210 2",
"  	c None",
". 	c #DEE1E6",
"+ 	c #DBE0E4",
"@ 	c #D8DEE2",
"# 	c #9EA4AB",
"$ 	c #6B727A",
"% 	c #4C535C",
"& 	c #414852",
"* 	c #D6DCE0",
"= 	c #B9C0C5",
"- 	c #606770",
"; 	c #676E78",
"> 	c #969FA7",
", 	c #B0BAC2",
"' 	c #B5C0C8",
") 	c #A6B0BA",
"! 	c #87919C",
"~ 	c #5E6670",
"{ 	c #D3DADF",
"] 	c #B7BEC4",
"^ 	c #4B525C",
"/ 	c #8F97A0",
"( 	c #A3AFBA",
"_ 	c #A4AFBA",
": 	c #9EAAB6",
"< 	c #757F8B",
"[ 	c #D0D8DD",
"} 	c #5F666F",
"| 	c #8E969F",
"1 	c #EBECED",
"2 	c #E4E6E9",
"3 	c #E1E3E7",
"4 	c #E3E5E9",
"5 	c #97A4B1",
"6 	c #929FAC",
"7 	c #6D7885",
"8 	c #CED6DB",
"9 	c #989FA6",
"0 	c #666E77",
"a 	c #BDC6CE",
"b 	c #DEE0E6",
"c 	c #C3CFD4",
"d 	c #BDC7CC",
"e 	c #919EAB",
"f 	c #8B99A7",
"g 	c #8694A3",
"h 	c #535C68",
"i 	c #CBD4D9",
"j 	c #676F78",
"k 	c #939CA4",
"l 	c #B6C0C9",
"m 	c #D8DDE2",
"n 	c #95A2AF",
"o 	c #909DAA",
"p 	c #8A98A6",
"q 	c #8593A2",
"r 	c #7F8E9D",
"s 	c #677381",
"t 	c #C8D2D8",
"u 	c #4B525B",
"v 	c #AAB4BD",
"w 	c #AFBAC4",
"x 	c #8997A5",
"y 	c #8392A1",
"z 	c #7E8D9C",
"A 	c #788898",
"B 	c #6E7D8D",
"C 	c #C6D0D6",
"D 	c #AEB9C3",
"E 	c #A8B4BE",
"F 	c #93A0AD",
"G 	c #8291A0",
"H 	c #7D8B9B",
"I 	c #778697",
"J 	c #728193",
"K 	c #6C7C8E",
"L 	c #4A525B",
"M 	c #9EA9B3",
"N 	c #A2AEB9",
"O 	c #9CA9B4",
"P 	c #8C99A7",
"Q 	c #768596",
"R 	c #708092",
"S 	c #6B7B8D",
"T 	c #627284",
"U 	c #C1CDD2",
"V 	c #656D76",
"W 	c #818B96",
"X 	c #9BA7B4",
"Y 	c #96A2AF",
"Z 	c #909DAB",
"` 	c #8B98A6",
" .	c #808E9E",
"..	c #6F7F91",
"+.	c #6A7A8C",
"@.	c #647588",
"#.	c #556273",
"$.	c #BECBD1",
"%.	c #8E99A0",
"&.	c #5A636E",
"*.	c #94A1AE",
"=.	c #8F9CAA",
"-.	c #8492A1",
";.	c #7E8D9D",
">.	c #798898",
",.	c #69798B",
"'.	c #637487",
").	c #5E6F83",
"!.	c #47515E",
"~.	c #BBC9CF",
"{.	c #5A636C",
"].	c #6E7985",
"^.	c #8896A4",
"/.	c #8391A0",
"(.	c #7D8C9C",
"_.	c #788797",
":.	c #728293",
"<.	c #627386",
"[.	c #5C6E82",
"}.	c #4E5B6B",
"|.	c #B9C7CD",
"1.	c #A2AFB5",
"2.	c #49515B",
"3.	c #67727F",
"4.	c #7C8B9B",
"5.	c #778696",
"6.	c #718192",
"7.	c #667789",
"8.	c #617285",
"9.	c #5B6D81",
"0.	c #4D5B6B",
"a.	c #B6C5CB",
"b.	c #9FADB4",
"c.	c #59626B",
"d.	c #505965",
"e.	c #606D7C",
"f.	c #667687",
"g.	c #657688",
"h.	c #5C6D7F",
"i.	c #516071",
"j.	c #46505D",
"k.	c #B3C3CA",
"l.	c #87949C",
"m.	c #616A73",
"n.	c #49515A",
"o.	c #B1C1C8",
"p.	c #AEBFC6",
"q.	c #576475",
"r.	c #526478",
"s.	c #4E6176",
"t.	c #516378",
"u.	c #54677B",
"v.	c #5E6F81",
"w.	c #5F6B7A",
"x.	c #54657A",
"y.	c #4C5F75",
"z.	c #4F6177",
"A.	c #516479",
"B.	c #54667B",
"C.	c #57697D",
"D.	c #596B7F",
"E.	c #5C6E81",
"F.	c #687889",
"G.	c #546579",
"H.	c #4D6075",
"I.	c #5F7184",
"J.	c #6D7D8E",
"K.	c #576574",
"L.	c #4D6076",
"M.	c #506378",
"N.	c #637486",
"O.	c #657689",
"P.	c #68798B",
"Q.	c #677380",
"R.	c #53667A",
"S.	c #6B7C8D",
"T.	c #778595",
"U.	c #66778A",
"V.	c #697A8C",
"W.	c #6E7F90",
"X.	c #748495",
"Y.	c #55677B",
"Z.	c #57697E",
"`.	c #5A6C80",
" +	c #6C7D8E",
".+	c #6F7F90",
"++	c #728292",
"@+	c #586A7E",
"#+	c #5B6C80",
"$+	c #5D6F82",
"%+	c #708091",
"&+	c #758595",
"*+	c #7C8A9A",
"=+	c #617184",
"-+	c #738394",
";+	c #8491A0",
">+	c #647587",
",+	c #768696",
"'+	c #7C8B9A",
")+	c #6F7A86",
"!+	c #6A7A8B",
"~+	c #67788A",
"{+	c #7A8999",
"]+	c #8593A0",
"^+	c #707F90",
"/+	c #6D7D8F",
"(+	c #7A8A99",
"_+	c #7D8C9B",
":+	c #8593A1",
"<+	c #6E7A87",
". . . . . . . . . . . . . . . . . . . . ",
"+ + + + + + + + + + + + + + + + + + + + ",
"@ @ @ @ @ @ # $ % & % $ # @ @ @ @ @ @ @ ",
"* * * * = - ; > , ' ) ! ~ - = * * * * * ",
"{ { { ] ^ / ( ( ( ( ( _ : < ^ ] { { { { ",
"[ [ [ } | ( 1 2 2 2 3 4 5 6 7 } [ [ [ [ ",
"8 8 9 0 a ( . b . c d d e f g h 9 8 8 8 ",
"i i j k l ( . m . . n o p q r s j i i i ",
"t t u v w ( . d d . c x y z A B u t t t ",
"C C & D E ( . d F c . G H I J K & C C C ",
"c c L M N O . d P g . c Q R S T L c c c ",
"U U V W X Y Z ` q  .. c ..+.@.#.V U U U ",
"$.$.%.&.*.=.x -.;.>.. c ,.'.).!.%.$.$.$.",
"~.~.~.{.].^./.(._.:.. c <.[.}.{.~.~.~.~.",
"|.|.|.1.2.3.4.5.6.K 7.8.9.0.2.1.|.|.|.|.",
"a.a.a.a.b.c.d.e.f.g.h.i.j.c.b.a.a.a.a.a.",
"k.k.k.k.k.k.l.m.n.& n.m.l.k.k.k.k.k.k.k.",
"o.o.o.o.o.o.o.o.o.o.o.o.o.o.o.o.o.o.o.o.",
"p.p.p.p.p.p.p.p.p.p.p.p.p.p.p.p.p.p.p.p.",
" . . . . . . . . . . . . . . . . . . . .",
". . . . . . . . . . . . . . . . . . . . ",
"+ + + + + + + + + + + + + + + + + + + + ",
"@ @ @ @ @ @ # $ % & % $ # @ @ @ @ @ @ @ ",
"* * * * = - q.r.s.t.u.v.w.- = * * * * * ",
"{ { { ] ^ x.y.z.A.B.C.D.E.F.^ ] { { { { ",
"[ [ [ } G.H.b b b b b b I.<.J.} [ [ [ [ ",
"8 8 9 K.L.M.b b c d d d N.O.P.Q.9 8 8 8 ",
"i i j G.t.R.b c b c 8.'.7.P.S.T.j i i i ",
"t t u A.B.C.b d c b c U.V.K W.X.u t t t ",
"C C & Y.Z.`.b d <.c . +. +.+++X.& C C C ",
"c c L @+#+$+b d O.P.. c %+:.&+*+L c c c ",
"U U V =+).8.'.7.P.S.. c -+Q A ;+V U U U ",
"$.$.%.w.8.>+U.V.K W.. c ,+>.'+)+%.$.$.$.",
"~.~.~.{.!+~++. +.+++. c {+4.]+{.~.~.~.~.",
"|.|.|.1.2.^+/+%+:.&+_.(+_+:+2.1.|.|.|.|.",
"a.a.a.a.b.c.Q.>.>.A ;.:+<+c.b.a.a.a.a.a.",
"k.k.k.k.k.k.l.m.n.& n.m.l.k.k.k.k.k.k.k.",
"o.o.o.o.o.o.o.o.o.o.o.o.o.o.o.o.o.o.o.o.",
"p.p.p.p.p.p.p.p.p.p.p.p.p.p.p.p.p.p.p.p.",
" . . . . . . . . . . . . . . . . . . . ."};
