/* XPM */
static char * rolldownI_xpm[] = {
"20 40 119 2",
"  	g None",
". 	g #CECECE",
"+ 	g #CCCCCC",
"@ 	g #CACACA",
"# 	g #8D8D8D",
"$ 	g #525252",
"% 	g #333333",
"& 	g #2A2A2A",
"* 	g #C9C9C9",
"= 	g #ACACAC",
"- 	g #474747",
"; 	g #4F4F4F",
"> 	g #878787",
", 	g #A5A5A5",
"' 	g #ABABAB",
") 	g #9B9B9B",
"! 	g #767676",
"~ 	g #464646",
"{ 	g #C7C7C7",
"] 	g #AAAAAA",
"^ 	g #7D7D7D",
"/ 	g #B5B5B5",
"( 	g #AFAFAF",
"_ 	g #A9A9A9",
": 	g #9E9E9E",
"< 	g #989898",
"[ 	g #929292",
"} 	g #616161",
"| 	g #C5C5C5",
"1 	g #7C7C7C",
"2 	g #B4B4B4",
"3 	g #ADADAD",
"4 	g #A8A8A8",
"5 	g #A2A2A2",
"6 	g #9D9D9D",
"7 	g #DEDEDE",
"8 	g #BABABA",
"9 	g #8B8B8B",
"0 	g #858585",
"a 	g #595959",
"b 	g #C3C3C3",
"c 	g #4E4E4E",
"d 	g #B3B3B3",
"e 	g #A7A7A7",
"f 	g #A1A1A1",
"g 	g #9C9C9C",
"h 	g #969696",
"i 	g #848484",
"j 	g #7E7E7E",
"k 	g #787878",
"l 	g #3C3C3C",
"m 	g #C0C0C0",
"n 	g #838383",
"o 	g #A6A6A6",
"p 	g #A0A0A0",
"q 	g #959595",
"r 	g #8F8F8F",
"s 	g #777777",
"t 	g #717171",
"u 	g #BEBEBE",
"v 	g #323232",
"w 	g #9F9F9F",
"x 	g #8E8E8E",
"y 	g #888888",
"z 	g #707070",
"A 	g #696969",
"B 	g #5D5D5D",
"C 	g #BCBCBC",
"D 	g #A4A4A4",
"E 	g #747474",
"F 	g #6D6D6D",
"G 	g #676767",
"H 	g #626262",
"I 	g #5C5C5C",
"J 	g #919191",
"K 	g #979797",
"L 	g #6C6C6C",
"M 	g #666666",
"N 	g #5B5B5B",
"O 	g #515151",
"P 	g #B8B8B8",
"Q 	g #4D4D4D",
"R 	g #6E6E6E",
"S 	g #898989",
"T 	g #6B6B6B",
"U 	g #656565",
"V 	g #5F5F5F",
"W 	g #5A5A5A",
"X 	g #535353",
"Y 	g #414141",
"Z 	g #B6B6B6",
"` 	g #434343",
" .	g #828282",
"..	g #313131",
"+.	g #7A7A7A",
"@.	g #4C4C4C",
"#.	g #3A3A3A",
"$.	g #B2B2B2",
"%.	g #555555",
"&.	g #505050",
"*.	g #4B4B4B",
"=.	g #424242",
"-.	g #393939",
";.	g #545454",
">.	g #3F3F3F",
",.	g #4A4A4A",
"'.	g #454545",
").	g #444444",
"!.	g #3D3D3D",
"~.	g #404040",
"{.	g #494949",
"].	g #585858",
"^.	g #3E3E3E",
"/.	g #484848",
"(.	g #5E5E5E",
"_.	g #636363",
":.	g #646464",
"<.	g #6A6A6A",
"[.	g #575757",
". . . . . . . . . . . . . . . . . . . . ",
"+ + + + + + + + + + + + + + + + + + + + ",
"@ @ @ @ @ @ # $ % & % $ # @ @ @ @ @ @ @ ",
"* * * * = - ; > , ' ) ! ~ - = * * * * * ",
"{ { { ] % ^ / ( _ , : < [ } % ] { { { { ",
"| | | ~ 1 2 3 4 5 6 7 8 9 0 a ~ | | | | ",
"b b > c d = e f g h 7 8 i j k l > b b b ",
"m m ; n ' o p ) q r 7 8 ^ s t $ ; m m m ",
"u u v : , w 7 d x y 7 8 ! z A B v u u u ",
"C C & D : < 7 d > 8 7 E F G H I & C C C ",
"8 8 v J K J 7 d 8 7 8 L M } N O v 8 8 8 ",
"P P Q R r S 7 8 7 8 T U V W X Y Q P P P ",
"Z Z j ` y  .7 7 8 d d d a $ c ..j Z Z Z ",
"2 2 2 ` W +.7 7 7 7 7 7 O @.#.` 2 2 2 2 ",
"$.$.$.K ..$ F G H I %.&.*.#...K $.$.$.$.",
"( ( ( ( q =.-.@.%.;.*.>...=.q ( ( ( ( ( ",
"= = = = = = s ,...& ..,.s = = = = = = = ",
"] ] ] ] ] ] ] ] ] ] ] ] ] ] ] ] ] ] ] ] ",
"4 4 4 4 4 4 4 4 4 4 4 4 4 4 4 4 4 4 4 4 ",
"t t t t t t t t t t t t t t t t t t t t ",
". . . . . . . . . . . . . . . . . . . . ",
"+ + + + + + + + + + + + + + + + + + + + ",
"@ @ @ @ @ @ # $ % & % $ # @ @ @ @ @ @ @ ",
"* * * * = - ` =.>.Y '.Q *.- = * * * * * ",
"{ { { ] % ).!.~.=.).- {.@.].% ] { { { { ",
"| | | ~ ).^.~.=.'.- . 8 ; O B ~ | | | | ",
"b b > ).^.Y ` './.*.. 8 $ ;.].$ > b b b ",
"m m ; ).Y ).~ {.*.c . 8 %.].N M ; m m m ",
"u u v =.).- . d c &.. 8 a I (.U v u u u ",
"C C & '.- ,.. d O 8 . W I V H U & C C C ",
"8 8 v /.*.Q . d 8 . 8 B } _.U L v 8 8 8 ",
"P P Q &.c &.. 8 . 8 (.} :.M A E Q P P P ",
"Z Z j *.&.X . . 8 d d d M <.F N j Z Z Z ",
"2 2 2 ` W [.. . . . . . T F s ` 2 2 2 2 ",
"$.$.$.K ..V B } _.U A T R s ..K $.$.$.$.",
"( ( ( ( q =.$ <.<.A z s W =.q ( ( ( ( ( ",
"= = = = = = s ,...& ..,.s = = = = = = = ",
"] ] ] ] ] ] ] ] ] ] ] ] ] ] ] ] ] ] ] ] ",
"4 4 4 4 4 4 4 4 4 4 4 4 4 4 4 4 4 4 4 4 ",
"t t t t t t t t t t t t t t t t t t t t "};
